<svg width="256" height="55" viewBox="0 0 256 55" fill="none" xmlns="http://www.w3.org/2000/svg">
<g clip-path="url(#clip0_632_7499)">
<path d="M75.0532 11.0934C78.3975 11.0934 81.1758 11.9437 83.3883 13.6445C85.6007 15.3452 87.0927 17.6514 87.8645 20.5633H83.1953C82.5522 18.9142 81.5231 17.6128 80.1083 16.6594C78.7191 15.6801 77.0083 15.1906 74.976 15.1906C73.3553 15.1906 71.9019 15.59 70.6156 16.3888C69.355 17.1876 68.3517 18.3344 67.6057 19.8289C66.8854 21.2977 66.5252 23.0242 66.5252 25.0084C66.5252 26.9668 66.8854 28.6933 67.6057 30.1879C68.3517 31.6567 69.355 32.7905 70.6156 33.5893C71.9019 34.3881 73.3553 34.7875 74.976 34.7875C77.0083 34.7875 78.7191 34.3108 80.1083 33.3574C81.5231 32.3782 82.5522 31.0769 83.1953 29.4535H87.8645C87.0927 32.3653 85.6007 34.6716 83.3883 36.3723C81.1758 38.0473 78.3975 38.8847 75.0532 38.8847C72.4807 38.8847 70.204 38.305 68.2231 37.1454C66.2422 35.96 64.7116 34.3237 63.6311 32.2365C62.5506 30.1235 62.0104 27.7141 62.0104 25.0084C62.0104 22.3027 62.5506 19.9062 63.6311 17.819C64.7116 15.706 66.2422 14.0567 68.2231 12.8714C70.204 11.6861 72.4807 11.0934 75.0532 11.0934ZM101.977 17.0846C104.036 17.0846 105.888 17.5227 107.534 18.3988C109.181 19.2748 110.467 20.5376 111.393 22.1867C112.319 23.8359 112.782 25.7685 112.782 27.9846C112.782 30.2265 112.319 32.1721 111.393 33.8212C110.467 35.4704 109.181 36.7331 107.534 37.6092C105.888 38.4853 104.036 38.9234 101.977 38.9234C99.92 38.9234 98.0678 38.4853 96.4207 37.6092C94.8 36.7331 93.5142 35.4704 92.5623 33.8212C91.6362 32.1462 91.1731 30.2008 91.1731 27.9846C91.1731 25.7685 91.6362 23.8359 92.5623 22.1867C93.5142 20.5376 94.8 19.2748 96.4207 18.3988C98.0678 17.5227 99.92 17.0846 101.977 17.0846ZM101.977 20.9112C100.846 20.9112 99.8043 21.1688 98.8518 21.6842C97.9003 22.1996 97.1285 22.9984 96.5365 24.0807C95.9709 25.1373 95.6876 26.4385 95.6876 27.9846C95.6876 29.5565 95.9709 30.8707 96.5365 31.9272C97.1285 32.9838 97.9003 33.7697 98.8518 34.2851C99.8043 34.8005 100.846 35.0581 101.977 35.0581C103.11 35.0581 104.152 34.8005 105.103 34.2851C106.056 33.7697 106.814 32.9838 107.38 31.9272C107.972 30.8707 108.267 29.5565 108.267 27.9846C108.267 26.4385 107.972 25.1373 107.38 24.0807C106.814 22.9984 106.056 22.1996 105.103 21.6842C104.152 21.1688 103.11 20.9112 101.977 20.9112ZM143.599 17.0072C146.121 17.0072 148.127 17.806 149.619 19.4037C151.137 21.0014 151.896 23.2819 151.896 26.2453V38.6528H147.497V26.7091C147.497 24.8538 147.033 23.4236 146.107 22.4186C145.181 21.3879 143.908 20.8725 142.287 20.8725C140.564 20.8725 139.187 21.4266 138.158 22.5346C137.155 23.6169 136.653 25.2146 136.653 27.3276V38.6528H132.254V26.7091C132.254 24.8538 131.791 23.4236 130.865 22.4186C129.939 21.3879 128.665 20.8725 127.045 20.8725C125.321 20.8725 123.945 21.4266 122.916 22.5346C121.913 23.6169 121.411 25.2146 121.411 27.3276V38.6528H117.012V17.3551H121.411V21.8002C121.951 20.2541 122.852 19.0688 124.112 18.2441C125.372 17.4195 126.852 17.0072 128.55 17.0072C130.325 17.0072 131.855 17.4453 133.142 18.3214C134.454 19.1975 135.405 20.4603 135.997 22.1094C136.615 20.5117 137.605 19.262 138.969 18.3601C140.332 17.4582 141.876 17.0072 143.599 17.0072ZM169.226 17.0846C171.079 17.0846 172.725 17.5227 174.166 18.3988C175.632 19.2748 176.777 20.5376 177.6 22.1867C178.423 23.8359 178.835 25.7685 178.835 27.9846C178.835 30.2265 178.423 32.1721 177.6 33.8212C176.777 35.4704 175.632 36.7331 174.166 37.6092C172.725 38.4853 171.079 38.9234 169.226 38.9234C167.297 38.9234 165.65 38.4466 164.287 37.4932C162.923 36.5398 161.972 35.2771 161.432 33.7053V48.7799H157.033V17.3551H161.432V22.3027C161.972 20.7308 162.923 19.4681 164.287 18.5147C165.65 17.5613 167.297 17.0846 169.226 17.0846ZM167.876 20.9498C166.641 20.9498 165.534 21.2461 164.557 21.8389C163.579 22.4057 162.808 23.2304 162.242 24.3126C161.675 25.3692 161.393 26.5931 161.393 27.9846C161.393 29.4019 161.675 30.6388 162.242 31.6953C162.808 32.7519 163.579 33.5764 164.557 34.1691C165.534 34.736 166.641 35.0195 167.876 35.0195C169.831 35.0195 171.4 34.401 172.584 33.1641C173.767 31.9015 174.359 30.1749 174.359 27.9846C174.359 25.8201 173.767 24.1065 172.584 22.8438C171.4 21.5812 169.831 20.9498 167.876 20.9498ZM191.6 17.0846C193.529 17.0846 195.176 17.5613 196.539 18.5147C197.902 19.4681 198.867 20.7308 199.433 22.3027V17.3551H203.833V38.6528H199.433V33.7053C198.867 35.2771 197.902 36.5398 196.539 37.4932C195.176 38.4466 193.529 38.9234 191.6 38.9234C189.748 38.9234 188.089 38.4853 186.622 37.6092C185.181 36.7331 184.049 35.4704 183.226 33.8212C182.403 32.1721 181.992 30.2265 181.992 27.9846C181.992 25.7685 182.403 23.8359 183.226 22.1867C184.049 20.5376 185.181 19.2748 186.622 18.3988C188.089 17.5227 189.748 17.0846 191.6 17.0846ZM192.951 20.9498C190.995 20.9498 189.426 21.5812 188.243 22.8438C187.085 24.0807 186.506 25.7944 186.506 27.9846C186.506 30.1749 187.085 31.9015 188.243 33.1641C189.426 34.401 190.995 35.0195 192.951 35.0195C194.185 35.0195 195.291 34.736 196.269 34.1691C197.246 33.5764 198.018 32.7519 198.585 31.6953C199.15 30.6388 199.433 29.4019 199.433 27.9846C199.433 26.5931 199.15 25.3692 198.585 24.3126C198.018 23.2304 197.246 22.4057 196.269 21.8389C195.291 21.2461 194.185 20.9498 192.951 20.9498ZM220.997 17.0072C223.466 17.0072 225.447 17.806 226.939 19.4037C228.431 21.0014 229.177 23.2819 229.177 26.2453V38.6528H224.778V26.7091C224.778 24.8022 224.289 23.3334 223.312 22.3027C222.334 21.2461 220.997 20.7179 219.299 20.7179C217.549 20.7179 216.147 21.2848 215.093 22.4186C214.038 23.5267 213.511 25.163 213.511 27.3276V38.6528H209.112V17.3551H213.511V22.0321C214.076 20.4344 215.028 19.1975 216.366 18.3214C217.704 17.4453 219.247 17.0072 220.997 17.0072ZM236.83 17.3551L243.197 33.0095L249.101 17.3551H254.002L241.152 48.7799H236.251L240.843 38.1503L231.891 17.3551H236.83Z" fill="white"/>
<path d="M51.3712 40.2168C48.8286 44.9868 44.931 48.8944 40.1714 51.4455C35.4117 53.9967 30.0036 55.0768 24.6311 54.5492C19.2586 54.0216 14.1629 51.9101 9.98842 48.4816C5.81399 45.0532 2.74823 40.4617 1.17886 35.288C-0.39051 30.1142 -0.393003 24.5905 1.1717 19.4153C2.73639 14.2402 5.798 9.64596 9.96941 6.2137C14.1407 2.78145 19.2345 0.665308 24.6066 0.132867C29.9785 -0.399574 35.3876 0.675601 40.1496 3.22243L36.9175 9.28606C33.3528 7.37955 29.3036 6.5747 25.2823 6.97327C21.2609 7.37185 17.4478 8.95594 14.3252 11.5252C11.2025 14.0945 8.91073 17.5337 7.73943 21.4077C6.56813 25.2817 6.57 29.4167 7.74479 33.2896C8.91959 37.1626 11.2146 40.5996 14.3395 43.1661C17.4644 45.7326 21.2789 47.3133 25.3006 47.7082C29.3224 48.1031 33.3707 47.2946 36.9337 45.3849C40.4968 43.4751 43.4144 40.5499 45.3177 36.9793L51.3712 40.2168Z" fill="white"/>
<path d="M28.7059 41.4811C36.2429 41.4811 42.3529 35.3608 42.3529 27.8112C42.3529 20.2615 36.2429 14.1413 28.7059 14.1413C21.1688 14.1413 15.0588 20.2615 15.0588 27.8112C15.0588 35.3608 21.1688 41.4811 28.7059 41.4811Z" fill="white"/>
</g>
<defs>
<clipPath id="clip0_632_7499">
<rect width="256" height="54.6796" fill="white"/>
</clipPath>
</defs>
</svg>
