<svg width="9" height="5" viewBox="0 0 9 5" fill="none" xmlns="http://www.w3.org/2000/svg">
<path d="M4.74373 4.79838C4.61044 4.79869 4.48128 4.74292 4.37865 4.64075L0.956069 1.21395C0.839578 1.09761 0.766321 0.930446 0.752414 0.749219C0.738507 0.567992 0.785089 0.38755 0.881913 0.247588C0.978737 0.107626 1.11787 0.019609 1.26871 0.00290011C1.41955 -0.0138088 1.56973 0.0421587 1.68622 0.158491L4.74373 3.2289L7.80123 0.268149C7.85958 0.211219 7.92672 0.168705 7.99879 0.14305C8.07085 0.117396 8.14643 0.109108 8.22117 0.118661C8.29591 0.128214 8.36835 0.155421 8.43431 0.198718C8.50027 0.242015 8.55847 0.300548 8.60554 0.370953C8.65778 0.441422 8.69734 0.524095 8.72175 0.61379C8.74616 0.703486 8.75489 0.798272 8.7474 0.89221C8.7399 0.986147 8.71634 1.07721 8.67818 1.1597C8.64003 1.24219 8.58811 1.31432 8.52568 1.37158L5.1031 4.68187C4.99752 4.76789 4.87099 4.80891 4.74373 4.79838V4.79838Z" fill="black"/>
</svg>
