<svg width="554" height="336" viewBox="0 0 554 336" fill="none" xmlns="http://www.w3.org/2000/svg">
<path d="M6.324 274.708C6.324 275.092 6.228 275.46 6.036 275.812C5.844 276.156 5.56 276.444 5.184 276.676C4.816 276.908 4.372 277.04 3.852 277.072V278.044H3.204V277.072C2.476 277.008 1.884 276.776 1.428 276.376C0.972 275.968 0.74 275.452 0.732 274.828H1.896C1.928 275.164 2.052 275.456 2.268 275.704C2.492 275.952 2.804 276.108 3.204 276.172V273.172C2.668 273.036 2.236 272.896 1.908 272.752C1.58 272.608 1.3 272.384 1.068 272.08C0.836 271.776 0.72 271.368 0.72 270.856C0.72 270.208 0.944 269.672 1.392 269.248C1.848 268.824 2.452 268.588 3.204 268.54V267.544H3.852V268.54C4.532 268.596 5.08 268.816 5.496 269.2C5.912 269.576 6.152 270.068 6.216 270.676H5.052C5.012 270.396 4.888 270.144 4.68 269.92C4.472 269.688 4.196 269.536 3.852 269.464V272.392C4.38 272.528 4.808 272.668 5.136 272.812C5.472 272.948 5.752 273.168 5.976 273.472C6.208 273.776 6.324 274.188 6.324 274.708ZM1.836 270.796C1.836 271.188 1.952 271.488 2.184 271.696C2.416 271.904 2.756 272.076 3.204 272.212V269.44C2.788 269.48 2.456 269.616 2.208 269.848C1.96 270.072 1.836 270.388 1.836 270.796ZM3.852 276.184C4.284 276.136 4.62 275.98 4.86 275.716C5.108 275.452 5.232 275.136 5.232 274.768C5.232 274.376 5.112 274.076 4.872 273.868C4.632 273.652 4.292 273.48 3.852 273.352V276.184ZM0.744 290.572C0.744 289.196 0.968 288.124 1.416 287.356C1.864 286.58 2.648 286.192 3.768 286.192C4.88 286.192 5.66 286.58 6.108 287.356C6.556 288.124 6.78 289.196 6.78 290.572C6.78 291.972 6.556 293.06 6.108 293.836C5.66 294.612 4.88 295 3.768 295C2.648 295 1.864 294.612 1.416 293.836C0.968 293.06 0.744 291.972 0.744 290.572ZM5.7 290.572C5.7 289.876 5.652 289.288 5.556 288.808C5.468 288.32 5.28 287.928 4.992 287.632C4.712 287.336 4.304 287.188 3.768 287.188C3.224 287.188 2.808 287.336 2.52 287.632C2.24 287.928 2.052 288.32 1.956 288.808C1.868 289.288 1.824 289.876 1.824 290.572C1.824 291.292 1.868 291.896 1.956 292.384C2.052 292.872 2.24 293.264 2.52 293.56C2.808 293.856 3.224 294.004 3.768 294.004C4.304 294.004 4.712 293.856 4.992 293.56C5.28 293.264 5.468 292.872 5.556 292.384C5.652 291.896 5.7 291.292 5.7 290.572Z" fill="#9E9E9E"/>
<path d="M33.156 323.56V322.54H35.58V331H34.428V323.56H33.156ZM39.3853 324.328C40.1293 324.328 40.7253 324.524 41.1733 324.916C41.6293 325.3 41.9053 325.82 42.0013 326.476H40.9573C40.9093 326.084 40.7453 325.764 40.4653 325.516C40.1933 325.26 39.8253 325.132 39.3613 325.132C38.9693 325.132 38.6613 325.228 38.4373 325.42C38.2213 325.604 38.1133 325.856 38.1133 326.176C38.1133 326.416 38.1853 326.612 38.3293 326.764C38.4813 326.908 38.6653 327.02 38.8813 327.1C39.1053 327.172 39.4093 327.252 39.7933 327.34C40.2813 327.452 40.6733 327.568 40.9693 327.688C41.2733 327.8 41.5293 327.984 41.7373 328.24C41.9533 328.496 42.0613 328.84 42.0613 329.272C42.0613 329.808 41.8573 330.244 41.4493 330.58C41.0493 330.916 40.5133 331.084 39.8413 331.084C39.0573 331.084 38.4173 330.896 37.9213 330.52C37.4253 330.144 37.1333 329.62 37.0453 328.948H38.1013C38.1413 329.348 38.3133 329.672 38.6173 329.92C38.9293 330.168 39.3373 330.292 39.8413 330.292C40.2173 330.292 40.5093 330.196 40.7173 330.004C40.9333 329.812 41.0413 329.56 41.0413 329.248C41.0413 328.992 40.9653 328.788 40.8133 328.636C40.6613 328.484 40.4733 328.368 40.2493 328.288C40.0253 328.208 39.7173 328.124 39.3253 328.036C38.8373 327.924 38.4453 327.812 38.1493 327.7C37.8613 327.588 37.6133 327.412 37.4053 327.172C37.2053 326.924 37.1053 326.592 37.1053 326.176C37.1053 325.624 37.3093 325.18 37.7173 324.844C38.1253 324.5 38.6813 324.328 39.3853 324.328ZM46.6645 330.04V331H45.8485C45.1765 331 44.6725 330.84 44.3365 330.52C44.0085 330.2 43.8445 329.664 43.8445 328.912V325.36H42.8605V324.412H43.8445V322.768H44.9485V324.412H46.6525V325.36H44.9485V328.936C44.9485 329.36 45.0245 329.652 45.1765 329.812C45.3365 329.964 45.6085 330.04 45.9925 330.04H46.6645ZM61.3659 322.54L59.2179 331H57.8859L55.9299 324.088L53.9739 331H52.6419L50.4819 322.54H51.6939L53.3139 329.728L55.3179 322.54H56.5299L58.5339 329.704L60.1659 322.54H61.3659ZM68.7055 327.34C68.7055 327.572 68.6895 327.772 68.6575 327.94H63.3895C63.4135 328.692 63.6255 329.256 64.0255 329.632C64.4335 330.008 64.9295 330.196 65.5135 330.196C66.0415 330.196 66.4815 330.064 66.8335 329.8C67.1935 329.528 67.4135 329.168 67.4935 328.72H68.6575C68.5775 329.176 68.3975 329.584 68.1175 329.944C67.8455 330.304 67.4895 330.584 67.0495 330.784C66.6095 330.984 66.1135 331.084 65.5615 331.084C64.9295 331.084 64.3695 330.948 63.8815 330.676C63.3935 330.404 63.0095 330.016 62.7295 329.512C62.4575 329 62.3215 328.4 62.3215 327.712C62.3215 327.024 62.4575 326.424 62.7295 325.912C63.0095 325.4 63.3935 325.008 63.8815 324.736C64.3695 324.464 64.9295 324.328 65.5615 324.328C66.2015 324.328 66.7575 324.464 67.2295 324.736C67.7095 325.008 68.0735 325.372 68.3215 325.828C68.5775 326.284 68.7055 326.788 68.7055 327.34ZM67.6015 327.412C67.6255 326.924 67.5455 326.516 67.3615 326.188C67.1775 325.86 66.9255 325.616 66.6055 325.456C66.2855 325.296 65.9375 325.216 65.5615 325.216C64.9615 325.216 64.4575 325.404 64.0495 325.78C63.6415 326.148 63.4215 326.692 63.3895 327.412H67.6015ZM76.1938 327.34C76.1938 327.572 76.1778 327.772 76.1458 327.94H70.8778C70.9018 328.692 71.1138 329.256 71.5138 329.632C71.9218 330.008 72.4178 330.196 73.0018 330.196C73.5298 330.196 73.9698 330.064 74.3218 329.8C74.6818 329.528 74.9018 329.168 74.9818 328.72H76.1458C76.0658 329.176 75.8858 329.584 75.6058 329.944C75.3338 330.304 74.9778 330.584 74.5378 330.784C74.0978 330.984 73.6018 331.084 73.0498 331.084C72.4178 331.084 71.8578 330.948 71.3698 330.676C70.8818 330.404 70.4978 330.016 70.2178 329.512C69.9458 329 69.8098 328.4 69.8098 327.712C69.8098 327.024 69.9458 326.424 70.2178 325.912C70.4978 325.4 70.8818 325.008 71.3698 324.736C71.8578 324.464 72.4178 324.328 73.0498 324.328C73.6898 324.328 74.2458 324.464 74.7178 324.736C75.1978 325.008 75.5618 325.372 75.8098 325.828C76.0658 326.284 76.1938 326.788 76.1938 327.34ZM75.0898 327.412C75.1138 326.924 75.0338 326.516 74.8498 326.188C74.6658 325.86 74.4138 325.616 74.0938 325.456C73.7738 325.296 73.4258 325.216 73.0498 325.216C72.4498 325.216 71.9458 325.404 71.5378 325.78C71.1298 326.148 70.9098 326.692 70.8778 327.412H75.0898ZM81.2341 331L78.7141 328.036V331H77.6221V322.12H78.7141V327.28L81.1981 324.412H82.5301L79.5781 327.688L82.6021 331H81.2341Z" fill="#9E9E9E"/>
<path d="M183.504 330.16C184.864 329.248 185.952 328.344 186.768 327.448C187.584 326.544 187.992 325.704 187.992 324.928C187.992 324.448 187.868 324.064 187.62 323.776C187.38 323.48 186.988 323.332 186.444 323.332C185.884 323.332 185.46 323.512 185.172 323.872C184.884 324.224 184.724 324.712 184.692 325.336H183.612C183.668 324.392 183.96 323.668 184.488 323.164C185.016 322.652 185.696 322.396 186.528 322.396C187.32 322.396 187.948 322.608 188.412 323.032C188.876 323.456 189.108 324.056 189.108 324.832C189.108 325.472 188.9 326.124 188.484 326.788C188.076 327.444 187.56 328.056 186.936 328.624C186.32 329.184 185.684 329.66 185.028 330.052H189.324V330.952H183.504V330.16ZM194.153 324.304C194.921 324.304 195.541 324.552 196.013 325.048C196.485 325.536 196.721 326.244 196.721 327.172V331H195.629V327.268C195.629 326.612 195.461 326.108 195.125 325.756C194.789 325.404 194.333 325.228 193.757 325.228C193.157 325.228 192.677 325.424 192.317 325.816C191.957 326.2 191.777 326.764 191.777 327.508V331H190.685V324.412H191.777V325.972C191.945 325.436 192.241 325.024 192.665 324.736C193.097 324.448 193.593 324.304 194.153 324.304ZM201.096 324.328C201.736 324.328 202.276 324.488 202.716 324.808C203.164 325.128 203.476 325.556 203.652 326.092V322.12H204.744V331H203.652V329.32C203.476 329.856 203.164 330.284 202.716 330.604C202.276 330.924 201.736 331.084 201.096 331.084C200.512 331.084 199.992 330.948 199.536 330.676C199.08 330.404 198.72 330.016 198.456 329.512C198.2 329 198.072 328.4 198.072 327.712C198.072 327.024 198.2 326.424 198.456 325.912C198.72 325.4 199.08 325.008 199.536 324.736C199.992 324.464 200.512 324.328 201.096 324.328ZM201.408 325.3C200.736 325.3 200.196 325.516 199.788 325.948C199.388 326.372 199.188 326.96 199.188 327.712C199.188 328.464 199.388 329.056 199.788 329.488C200.196 329.912 200.736 330.124 201.408 330.124C201.84 330.124 202.224 330.024 202.56 329.824C202.904 329.624 203.172 329.344 203.364 328.984C203.556 328.616 203.652 328.192 203.652 327.712C203.652 327.232 203.556 326.808 203.364 326.44C203.172 326.072 202.904 325.792 202.56 325.6C202.224 325.4 201.84 325.3 201.408 325.3ZM219.85 322.54L217.702 331H216.37L214.414 324.088L212.458 331H211.126L208.966 322.54H210.178L211.798 329.728L213.802 322.54H215.014L217.018 329.704L218.65 322.54H219.85ZM227.19 327.34C227.19 327.572 227.174 327.772 227.142 327.94H221.874C221.898 328.692 222.11 329.256 222.51 329.632C222.918 330.008 223.414 330.196 223.998 330.196C224.526 330.196 224.966 330.064 225.318 329.8C225.678 329.528 225.898 329.168 225.978 328.72H227.142C227.062 329.176 226.882 329.584 226.602 329.944C226.33 330.304 225.974 330.584 225.534 330.784C225.094 330.984 224.598 331.084 224.046 331.084C223.414 331.084 222.854 330.948 222.366 330.676C221.878 330.404 221.494 330.016 221.214 329.512C220.942 329 220.806 328.4 220.806 327.712C220.806 327.024 220.942 326.424 221.214 325.912C221.494 325.4 221.878 325.008 222.366 324.736C222.854 324.464 223.414 324.328 224.046 324.328C224.686 324.328 225.242 324.464 225.714 324.736C226.194 325.008 226.558 325.372 226.806 325.828C227.062 326.284 227.19 326.788 227.19 327.34ZM226.086 327.412C226.11 326.924 226.03 326.516 225.846 326.188C225.662 325.86 225.41 325.616 225.09 325.456C224.77 325.296 224.422 325.216 224.046 325.216C223.446 325.216 222.942 325.404 222.534 325.78C222.126 326.148 221.906 326.692 221.874 327.412H226.086ZM234.678 327.34C234.678 327.572 234.662 327.772 234.63 327.94H229.362C229.386 328.692 229.598 329.256 229.998 329.632C230.406 330.008 230.902 330.196 231.486 330.196C232.014 330.196 232.454 330.064 232.806 329.8C233.166 329.528 233.386 329.168 233.466 328.72H234.63C234.55 329.176 234.37 329.584 234.09 329.944C233.818 330.304 233.462 330.584 233.022 330.784C232.582 330.984 232.086 331.084 231.534 331.084C230.902 331.084 230.342 330.948 229.854 330.676C229.366 330.404 228.982 330.016 228.702 329.512C228.43 329 228.294 328.4 228.294 327.712C228.294 327.024 228.43 326.424 228.702 325.912C228.982 325.4 229.366 325.008 229.854 324.736C230.342 324.464 230.902 324.328 231.534 324.328C232.174 324.328 232.73 324.464 233.202 324.736C233.682 325.008 234.046 325.372 234.294 325.828C234.55 326.284 234.678 326.788 234.678 327.34ZM233.574 327.412C233.598 326.924 233.518 326.516 233.334 326.188C233.15 325.86 232.898 325.616 232.578 325.456C232.258 325.296 231.91 325.216 231.534 325.216C230.934 325.216 230.43 325.404 230.022 325.78C229.614 326.148 229.394 326.692 229.362 327.412H233.574ZM239.718 331L237.198 328.036V331H236.106V322.12H237.198V327.28L239.682 324.412H241.014L238.062 327.688L241.086 331H239.718Z" fill="#9E9E9E"/>
<path d="M345.588 322.312C346.132 322.312 346.6 322.408 346.992 322.6C347.384 322.792 347.68 323.056 347.88 323.392C348.08 323.728 348.18 324.108 348.18 324.532C348.18 325.06 348.024 325.504 347.712 325.864C347.408 326.224 346.96 326.44 346.368 326.512V326.584C346.984 326.744 347.464 326.992 347.808 327.328C348.16 327.664 348.336 328.128 348.336 328.72C348.336 329.416 348.104 329.984 347.64 330.424C347.176 330.864 346.508 331.084 345.636 331.084C344.764 331.084 344.056 330.86 343.512 330.412C342.976 329.956 342.66 329.292 342.564 328.42H343.644C343.716 328.948 343.916 329.368 344.244 329.68C344.58 329.992 345.032 330.148 345.6 330.148C346.136 330.148 346.548 330.012 346.836 329.74C347.124 329.46 347.268 329.1 347.268 328.66C347.268 328.132 347.06 327.732 346.644 327.46C346.236 327.18 345.652 327.04 344.892 327.04H344.604V326.128H344.892C346.364 326.128 347.1 325.636 347.1 324.652C347.1 324.22 346.964 323.876 346.692 323.62C346.42 323.364 346.044 323.236 345.564 323.236C345.084 323.236 344.68 323.376 344.352 323.656C344.024 323.928 343.832 324.332 343.776 324.868H342.708C342.764 324.068 343.04 323.444 343.536 322.996C344.04 322.54 344.724 322.312 345.588 322.312ZM351.034 325.744C351.25 325.288 351.566 324.936 351.982 324.688C352.398 324.432 352.894 324.304 353.47 324.304V325.492H353.134C352.518 325.492 352.014 325.652 351.622 325.972C351.23 326.284 351.034 326.804 351.034 327.532V331H349.942V324.412H351.034V325.744ZM357.248 324.328C357.888 324.328 358.428 324.488 358.868 324.808C359.316 325.128 359.628 325.556 359.804 326.092V322.12H360.896V331H359.804V329.32C359.628 329.856 359.316 330.284 358.868 330.604C358.428 330.924 357.888 331.084 357.248 331.084C356.664 331.084 356.144 330.948 355.688 330.676C355.232 330.404 354.872 330.016 354.608 329.512C354.352 329 354.224 328.4 354.224 327.712C354.224 327.024 354.352 326.424 354.608 325.912C354.872 325.4 355.232 325.008 355.688 324.736C356.144 324.464 356.664 324.328 357.248 324.328ZM357.56 325.3C356.888 325.3 356.348 325.516 355.94 325.948C355.54 326.372 355.34 326.96 355.34 327.712C355.34 328.464 355.54 329.056 355.94 329.488C356.348 329.912 356.888 330.124 357.56 330.124C357.992 330.124 358.376 330.024 358.712 329.824C359.056 329.624 359.324 329.344 359.516 328.984C359.708 328.616 359.804 328.192 359.804 327.712C359.804 327.232 359.708 326.808 359.516 326.44C359.324 326.072 359.056 325.792 358.712 325.6C358.376 325.4 357.992 325.3 357.56 325.3ZM376.003 322.54L373.855 331H372.523L370.567 324.088L368.611 331H367.279L365.119 322.54H366.331L367.951 329.728L369.955 322.54H371.167L373.171 329.704L374.803 322.54H376.003ZM383.342 327.34C383.342 327.572 383.326 327.772 383.294 327.94H378.026C378.05 328.692 378.262 329.256 378.662 329.632C379.07 330.008 379.566 330.196 380.15 330.196C380.678 330.196 381.118 330.064 381.47 329.8C381.83 329.528 382.05 329.168 382.13 328.72H383.294C383.214 329.176 383.034 329.584 382.754 329.944C382.482 330.304 382.126 330.584 381.686 330.784C381.246 330.984 380.75 331.084 380.198 331.084C379.566 331.084 379.006 330.948 378.518 330.676C378.03 330.404 377.646 330.016 377.366 329.512C377.094 329 376.958 328.4 376.958 327.712C376.958 327.024 377.094 326.424 377.366 325.912C377.646 325.4 378.03 325.008 378.518 324.736C379.006 324.464 379.566 324.328 380.198 324.328C380.838 324.328 381.394 324.464 381.866 324.736C382.346 325.008 382.71 325.372 382.958 325.828C383.214 326.284 383.342 326.788 383.342 327.34ZM382.238 327.412C382.262 326.924 382.182 326.516 381.998 326.188C381.814 325.86 381.562 325.616 381.242 325.456C380.922 325.296 380.574 325.216 380.198 325.216C379.598 325.216 379.094 325.404 378.686 325.78C378.278 326.148 378.058 326.692 378.026 327.412H382.238ZM390.831 327.34C390.831 327.572 390.815 327.772 390.783 327.94H385.515C385.539 328.692 385.751 329.256 386.151 329.632C386.559 330.008 387.055 330.196 387.639 330.196C388.167 330.196 388.607 330.064 388.959 329.8C389.319 329.528 389.539 329.168 389.619 328.72H390.783C390.703 329.176 390.523 329.584 390.243 329.944C389.971 330.304 389.615 330.584 389.175 330.784C388.735 330.984 388.239 331.084 387.687 331.084C387.055 331.084 386.495 330.948 386.007 330.676C385.519 330.404 385.135 330.016 384.855 329.512C384.583 329 384.447 328.4 384.447 327.712C384.447 327.024 384.583 326.424 384.855 325.912C385.135 325.4 385.519 325.008 386.007 324.736C386.495 324.464 387.055 324.328 387.687 324.328C388.327 324.328 388.883 324.464 389.355 324.736C389.835 325.008 390.199 325.372 390.447 325.828C390.703 326.284 390.831 326.788 390.831 327.34ZM389.727 327.412C389.751 326.924 389.671 326.516 389.487 326.188C389.303 325.86 389.051 325.616 388.731 325.456C388.411 325.296 388.063 325.216 387.687 325.216C387.087 325.216 386.583 325.404 386.175 325.78C385.767 326.148 385.547 326.692 385.515 327.412H389.727ZM395.871 331L393.351 328.036V331H392.259V322.12H393.351V327.28L395.835 324.412H397.167L394.215 327.688L397.239 331H395.871Z" fill="#9E9E9E"/>
<path d="M498.372 329.056V328.144L502.716 322.48H503.892V328.108H505.14V329.056H503.892V331H502.788V329.056H498.372ZM502.86 323.812L499.524 328.108H502.86V323.812ZM509.461 330.04V331H508.645C507.973 331 507.469 330.84 507.133 330.52C506.805 330.2 506.641 329.664 506.641 328.912V325.36H505.657V324.412H506.641V322.768H507.745V324.412H509.449V325.36H507.745V328.936C507.745 329.36 507.821 329.652 507.973 329.812C508.133 329.964 508.405 330.04 508.789 330.04H509.461ZM514.262 324.304C515.03 324.304 515.65 324.552 516.122 325.048C516.594 325.536 516.83 326.244 516.83 327.172V331H515.738V327.268C515.738 326.612 515.57 326.108 515.234 325.756C514.898 325.404 514.442 325.228 513.866 325.228C513.266 325.228 512.786 325.424 512.426 325.816C512.066 326.2 511.886 326.764 511.886 327.508V331H510.794V322.12H511.886V325.972C512.054 325.436 512.35 325.024 512.774 324.736C513.206 324.448 513.702 324.304 514.262 324.304ZM531.874 322.54L529.726 331H528.394L526.438 324.088L524.482 331H523.15L520.99 322.54H522.202L523.822 329.728L525.826 322.54H527.038L529.042 329.704L530.674 322.54H531.874ZM539.213 327.34C539.213 327.572 539.197 327.772 539.165 327.94H533.897C533.921 328.692 534.133 329.256 534.533 329.632C534.941 330.008 535.437 330.196 536.021 330.196C536.549 330.196 536.989 330.064 537.341 329.8C537.701 329.528 537.921 329.168 538.001 328.72H539.165C539.085 329.176 538.905 329.584 538.625 329.944C538.353 330.304 537.997 330.584 537.557 330.784C537.117 330.984 536.621 331.084 536.069 331.084C535.437 331.084 534.877 330.948 534.389 330.676C533.901 330.404 533.517 330.016 533.237 329.512C532.965 329 532.829 328.4 532.829 327.712C532.829 327.024 532.965 326.424 533.237 325.912C533.517 325.4 533.901 325.008 534.389 324.736C534.877 324.464 535.437 324.328 536.069 324.328C536.709 324.328 537.265 324.464 537.737 324.736C538.217 325.008 538.581 325.372 538.829 325.828C539.085 326.284 539.213 326.788 539.213 327.34ZM538.109 327.412C538.133 326.924 538.053 326.516 537.869 326.188C537.685 325.86 537.433 325.616 537.113 325.456C536.793 325.296 536.445 325.216 536.069 325.216C535.469 325.216 534.965 325.404 534.557 325.78C534.149 326.148 533.929 326.692 533.897 327.412H538.109ZM546.702 327.34C546.702 327.572 546.686 327.772 546.654 327.94H541.386C541.41 328.692 541.622 329.256 542.022 329.632C542.43 330.008 542.926 330.196 543.51 330.196C544.038 330.196 544.478 330.064 544.83 329.8C545.19 329.528 545.41 329.168 545.49 328.72H546.654C546.574 329.176 546.394 329.584 546.114 329.944C545.842 330.304 545.486 330.584 545.046 330.784C544.606 330.984 544.11 331.084 543.558 331.084C542.926 331.084 542.366 330.948 541.878 330.676C541.39 330.404 541.006 330.016 540.726 329.512C540.454 329 540.318 328.4 540.318 327.712C540.318 327.024 540.454 326.424 540.726 325.912C541.006 325.4 541.39 325.008 541.878 324.736C542.366 324.464 542.926 324.328 543.558 324.328C544.198 324.328 544.754 324.464 545.226 324.736C545.706 325.008 546.07 325.372 546.318 325.828C546.574 326.284 546.702 326.788 546.702 327.34ZM545.598 327.412C545.622 326.924 545.542 326.516 545.358 326.188C545.174 325.86 544.922 325.616 544.602 325.456C544.282 325.296 543.934 325.216 543.558 325.216C542.958 325.216 542.454 325.404 542.046 325.78C541.638 326.148 541.418 326.692 541.386 327.412H545.598ZM551.742 331L549.222 328.036V331H548.13V322.12H549.222V327.28L551.706 324.412H553.038L550.086 327.688L553.11 331H551.742Z" fill="#9E9E9E"/>
<path d="M3.66 250.26C4.284 250.452 4.768 250.624 5.112 250.776C5.456 250.928 5.756 251.168 6.012 251.496C6.268 251.816 6.396 252.252 6.396 252.804C6.396 253.204 6.296 253.576 6.096 253.92C5.904 254.264 5.604 254.544 5.196 254.76C4.788 254.976 4.288 255.084 3.696 255.084H3.66V256.044H3.288V255.06C2.528 254.988 1.908 254.74 1.428 254.316C0.948 253.884 0.68 253.352 0.624 252.72H1.788C1.82 253.056 1.964 253.372 2.22 253.668C2.484 253.956 2.84 254.136 3.288 254.208V251.136C2.672 250.952 2.192 250.788 1.848 250.644C1.512 250.492 1.216 250.256 0.96 249.936C0.712 249.616 0.588 249.188 0.588 248.652C0.588 248.212 0.7 247.824 0.924 247.488C1.148 247.152 1.464 246.892 1.872 246.708C2.28 246.524 2.752 246.432 3.288 246.432V245.4H3.66V246.444C4.404 246.5 4.996 246.728 5.436 247.128C5.876 247.528 6.136 248.012 6.216 248.58H5.04C4.984 248.276 4.84 248.004 4.608 247.764C4.376 247.524 4.06 247.372 3.66 247.308V250.26ZM1.764 248.604C1.764 249.012 1.892 249.328 2.148 249.552C2.412 249.776 2.792 249.972 3.288 250.14V247.284C2.824 247.284 2.452 247.4 2.172 247.632C1.9 247.856 1.764 248.18 1.764 248.604ZM3.672 254.232C4.168 254.232 4.552 254.1 4.824 253.836C5.096 253.572 5.232 253.236 5.232 252.828C5.232 252.404 5.096 252.076 4.824 251.844C4.552 251.612 4.164 251.416 3.66 251.256V254.232H3.672ZM13.3684 247.404H9.02438V250.236C9.22438 249.964 9.51238 249.748 9.88838 249.588C10.2644 249.428 10.6764 249.348 11.1244 249.348C11.7244 249.348 12.2204 249.476 12.6124 249.732C13.0124 249.98 13.3044 250.312 13.4884 250.728C13.6804 251.136 13.7764 251.592 13.7764 252.096C13.7764 252.968 13.5324 253.68 13.0444 254.232C12.5564 254.784 11.8404 255.06 10.8964 255.06C10.0484 255.06 9.35638 254.832 8.82038 254.376C8.28438 253.912 7.98438 253.292 7.92038 252.516H9.00038C9.08838 253.012 9.29238 253.4 9.61238 253.68C9.94038 253.952 10.3524 254.088 10.8484 254.088C11.4644 254.088 11.9284 253.904 12.2404 253.536C12.5524 253.168 12.7084 252.684 12.7084 252.084C12.7084 251.5 12.5484 251.044 12.2284 250.716C11.9084 250.388 11.4564 250.224 10.8724 250.224C10.4564 250.224 10.0924 250.316 9.78038 250.5C9.46838 250.676 9.23238 250.916 9.07238 251.22H8.01638V246.432H13.3684V247.404ZM15.0629 250.716C15.0629 252.076 15.2869 253.136 15.7349 253.896C16.1829 254.656 16.9589 255.036 18.0629 255.036C19.1669 255.036 19.9429 254.656 20.3909 253.896C20.8469 253.136 21.0749 252.076 21.0749 250.716C21.0749 249.372 20.8469 248.32 20.3909 247.56C19.9429 246.8 19.1669 246.42 18.0629 246.42C16.9589 246.42 16.1829 246.8 15.7349 247.56C15.2869 248.312 15.0629 249.364 15.0629 250.716ZM19.9949 250.716C19.9949 251.412 19.9429 251.996 19.8389 252.468C19.7429 252.932 19.5549 253.304 19.2749 253.584C18.9949 253.864 18.5909 254.004 18.0629 254.004C17.5429 254.004 17.1429 253.864 16.8629 253.584C16.5829 253.304 16.3909 252.932 16.2869 252.468C16.1909 251.996 16.1429 251.412 16.1429 250.716C16.1429 250.028 16.1909 249.452 16.2869 248.988C16.3909 248.524 16.5829 248.156 16.8629 247.884C17.1429 247.604 17.5429 247.464 18.0629 247.464C18.5909 247.464 18.9949 247.604 19.2749 247.884C19.5549 248.156 19.7429 248.524 19.8389 248.988C19.9429 249.452 19.9949 250.028 19.9949 250.716ZM24.726 250.728L28.59 255H27.246L23.718 251.052V255H22.626V246.54H23.718V250.464L27.258 246.54H28.59L24.726 250.728Z" fill="#9E9E9E"/>
<path d="M3.66 206.26C4.284 206.452 4.768 206.624 5.112 206.776C5.456 206.928 5.756 207.168 6.012 207.496C6.268 207.816 6.396 208.252 6.396 208.804C6.396 209.204 6.296 209.576 6.096 209.92C5.904 210.264 5.604 210.544 5.196 210.76C4.788 210.976 4.288 211.084 3.696 211.084H3.66V212.044H3.288V211.06C2.528 210.988 1.908 210.74 1.428 210.316C0.948 209.884 0.68 209.352 0.624 208.72H1.788C1.82 209.056 1.964 209.372 2.22 209.668C2.484 209.956 2.84 210.136 3.288 210.208V207.136C2.672 206.952 2.192 206.788 1.848 206.644C1.512 206.492 1.216 206.256 0.96 205.936C0.712 205.616 0.588 205.188 0.588 204.652C0.588 204.212 0.7 203.824 0.924 203.488C1.148 203.152 1.464 202.892 1.872 202.708C2.28 202.524 2.752 202.432 3.288 202.432V201.4H3.66V202.444C4.404 202.5 4.996 202.728 5.436 203.128C5.876 203.528 6.136 204.012 6.216 204.58H5.04C4.984 204.276 4.84 204.004 4.608 203.764C4.376 203.524 4.06 203.372 3.66 203.308V206.26ZM1.764 204.604C1.764 205.012 1.892 205.328 2.148 205.552C2.412 205.776 2.792 205.972 3.288 206.14V203.284C2.824 203.284 2.452 203.4 2.172 203.632C1.9 203.856 1.764 204.18 1.764 204.604ZM3.672 210.232C4.168 210.232 4.552 210.1 4.824 209.836C5.096 209.572 5.232 209.236 5.232 208.828C5.232 208.404 5.096 208.076 4.824 207.844C4.552 207.612 4.164 207.416 3.66 207.256V210.232H3.672ZM7.14038 203.56V202.54H9.56438V211H8.41238V203.56H7.14038ZM11.1137 206.716C11.1137 208.076 11.3377 209.136 11.7857 209.896C12.2337 210.656 13.0097 211.036 14.1137 211.036C15.2177 211.036 15.9937 210.656 16.4417 209.896C16.8977 209.136 17.1257 208.076 17.1257 206.716C17.1257 205.372 16.8977 204.32 16.4417 203.56C15.9937 202.8 15.2177 202.42 14.1137 202.42C13.0097 202.42 12.2337 202.8 11.7857 203.56C11.3377 204.312 11.1137 205.364 11.1137 206.716ZM16.0457 206.716C16.0457 207.412 15.9937 207.996 15.8897 208.468C15.7937 208.932 15.6057 209.304 15.3257 209.584C15.0457 209.864 14.6417 210.004 14.1137 210.004C13.5937 210.004 13.1937 209.864 12.9137 209.584C12.6337 209.304 12.4417 208.932 12.3377 208.468C12.2417 207.996 12.1937 207.412 12.1937 206.716C12.1937 206.028 12.2417 205.452 12.3377 204.988C12.4417 204.524 12.6337 204.156 12.9137 203.884C13.1937 203.604 13.5937 203.464 14.1137 203.464C14.6417 203.464 15.0457 203.604 15.3257 203.884C15.6057 204.156 15.7937 204.524 15.8897 204.988C15.9937 205.452 16.0457 206.028 16.0457 206.716ZM18.4848 206.716C18.4848 208.076 18.7088 209.136 19.1568 209.896C19.6048 210.656 20.3808 211.036 21.4848 211.036C22.5888 211.036 23.3648 210.656 23.8128 209.896C24.2688 209.136 24.4968 208.076 24.4968 206.716C24.4968 205.372 24.2688 204.32 23.8128 203.56C23.3648 202.8 22.5888 202.42 21.4848 202.42C20.3808 202.42 19.6048 202.8 19.1568 203.56C18.7088 204.312 18.4848 205.364 18.4848 206.716ZM23.4168 206.716C23.4168 207.412 23.3648 207.996 23.2608 208.468C23.1648 208.932 22.9768 209.304 22.6968 209.584C22.4168 209.864 22.0128 210.004 21.4848 210.004C20.9648 210.004 20.5648 209.864 20.2848 209.584C20.0048 209.304 19.8128 208.932 19.7088 208.468C19.6128 207.996 19.5648 207.412 19.5648 206.716C19.5648 206.028 19.6128 205.452 19.7088 204.988C19.8128 204.524 20.0048 204.156 20.2848 203.884C20.5648 203.604 20.9648 203.464 21.4848 203.464C22.0128 203.464 22.4168 203.604 22.6968 203.884C22.9768 204.156 23.1648 204.524 23.2608 204.988C23.3648 205.452 23.4168 206.028 23.4168 206.716ZM28.1479 206.728L32.0119 211H30.6679L27.1399 207.052V211H26.0479V202.54H27.1399V206.464L30.6799 202.54H32.0119L28.1479 206.728Z" fill="#9E9E9E"/>
<path d="M3.66 162.26C4.284 162.452 4.768 162.624 5.112 162.776C5.456 162.928 5.756 163.168 6.012 163.496C6.268 163.816 6.396 164.252 6.396 164.804C6.396 165.204 6.296 165.576 6.096 165.92C5.904 166.264 5.604 166.544 5.196 166.76C4.788 166.976 4.288 167.084 3.696 167.084H3.66V168.044H3.288V167.06C2.528 166.988 1.908 166.74 1.428 166.316C0.948 165.884 0.68 165.352 0.624 164.72H1.788C1.82 165.056 1.964 165.372 2.22 165.668C2.484 165.956 2.84 166.136 3.288 166.208V163.136C2.672 162.952 2.192 162.788 1.848 162.644C1.512 162.492 1.216 162.256 0.96 161.936C0.712 161.616 0.588 161.188 0.588 160.652C0.588 160.212 0.7 159.824 0.924 159.488C1.148 159.152 1.464 158.892 1.872 158.708C2.28 158.524 2.752 158.432 3.288 158.432V157.4H3.66V158.444C4.404 158.5 4.996 158.728 5.436 159.128C5.876 159.528 6.136 160.012 6.216 160.58H5.04C4.984 160.276 4.84 160.004 4.608 159.764C4.376 159.524 4.06 159.372 3.66 159.308V162.26ZM1.764 160.604C1.764 161.012 1.892 161.328 2.148 161.552C2.412 161.776 2.792 161.972 3.288 162.14V159.284C2.824 159.284 2.452 159.4 2.172 159.632C1.9 159.856 1.764 160.18 1.764 160.604ZM3.672 166.232C4.168 166.232 4.552 166.1 4.824 165.836C5.096 165.572 5.232 165.236 5.232 164.828C5.232 164.404 5.096 164.076 4.824 163.844C4.552 163.612 4.164 163.416 3.66 163.256V166.232H3.672ZM7.14038 159.56V158.54H9.56438V167H8.41238V159.56H7.14038ZM16.8137 159.404H12.4697V162.236C12.6697 161.964 12.9577 161.748 13.3337 161.588C13.7097 161.428 14.1217 161.348 14.5697 161.348C15.1697 161.348 15.6657 161.476 16.0577 161.732C16.4577 161.98 16.7497 162.312 16.9337 162.728C17.1257 163.136 17.2217 163.592 17.2217 164.096C17.2217 164.968 16.9777 165.68 16.4897 166.232C16.0017 166.784 15.2857 167.06 14.3417 167.06C13.4937 167.06 12.8017 166.832 12.2657 166.376C11.7297 165.912 11.4297 165.292 11.3657 164.516H12.4457C12.5337 165.012 12.7377 165.4 13.0577 165.68C13.3857 165.952 13.7977 166.088 14.2937 166.088C14.9097 166.088 15.3737 165.904 15.6857 165.536C15.9977 165.168 16.1537 164.684 16.1537 164.084C16.1537 163.5 15.9937 163.044 15.6737 162.716C15.3537 162.388 14.9017 162.224 14.3177 162.224C13.9017 162.224 13.5377 162.316 13.2257 162.5C12.9137 162.676 12.6777 162.916 12.5177 163.22H11.4617V158.432H16.8137V159.404ZM18.5082 162.716C18.5082 164.076 18.7322 165.136 19.1802 165.896C19.6282 166.656 20.4042 167.036 21.5082 167.036C22.6122 167.036 23.3882 166.656 23.8362 165.896C24.2922 165.136 24.5202 164.076 24.5202 162.716C24.5202 161.372 24.2922 160.32 23.8362 159.56C23.3882 158.8 22.6122 158.42 21.5082 158.42C20.4042 158.42 19.6282 158.8 19.1802 159.56C18.7322 160.312 18.5082 161.364 18.5082 162.716ZM23.4402 162.716C23.4402 163.412 23.3882 163.996 23.2842 164.468C23.1882 164.932 23.0002 165.304 22.7202 165.584C22.4402 165.864 22.0362 166.004 21.5082 166.004C20.9882 166.004 20.5882 165.864 20.3082 165.584C20.0282 165.304 19.8362 164.932 19.7322 164.468C19.6362 163.996 19.5882 163.412 19.5882 162.716C19.5882 162.028 19.6362 161.452 19.7322 160.988C19.8362 160.524 20.0282 160.156 20.3082 159.884C20.5882 159.604 20.9882 159.464 21.5082 159.464C22.0362 159.464 22.4402 159.604 22.7202 159.884C23.0002 160.156 23.1882 160.524 23.2842 160.988C23.3882 161.452 23.4402 162.028 23.4402 162.716ZM28.1713 162.728L32.0353 167H30.6913L27.1633 163.052V167H26.0713V158.54H27.1633V162.464L30.7033 158.54H32.0353L28.1713 162.728Z" fill="#9E9E9E"/>
<path d="M3.66 118.26C4.284 118.452 4.768 118.624 5.112 118.776C5.456 118.928 5.756 119.168 6.012 119.496C6.268 119.816 6.396 120.252 6.396 120.804C6.396 121.204 6.296 121.576 6.096 121.92C5.904 122.264 5.604 122.544 5.196 122.76C4.788 122.976 4.288 123.084 3.696 123.084H3.66V124.044H3.288V123.06C2.528 122.988 1.908 122.74 1.428 122.316C0.948 121.884 0.68 121.352 0.624 120.72H1.788C1.82 121.056 1.964 121.372 2.22 121.668C2.484 121.956 2.84 122.136 3.288 122.208V119.136C2.672 118.952 2.192 118.788 1.848 118.644C1.512 118.492 1.216 118.256 0.96 117.936C0.712 117.616 0.588 117.188 0.588 116.652C0.588 116.212 0.7 115.824 0.924 115.488C1.148 115.152 1.464 114.892 1.872 114.708C2.28 114.524 2.752 114.432 3.288 114.432V113.4H3.66V114.444C4.404 114.5 4.996 114.728 5.436 115.128C5.876 115.528 6.136 116.012 6.216 116.58H5.04C4.984 116.276 4.84 116.004 4.608 115.764C4.376 115.524 4.06 115.372 3.66 115.308V118.26ZM1.764 116.604C1.764 117.012 1.892 117.328 2.148 117.552C2.412 117.776 2.792 117.972 3.288 118.14V115.284C2.824 115.284 2.452 115.4 2.172 115.632C1.9 115.856 1.764 116.18 1.764 116.604ZM3.672 122.232C4.168 122.232 4.552 122.1 4.824 121.836C5.096 121.572 5.232 121.236 5.232 120.828C5.232 120.404 5.096 120.076 4.824 119.844C4.552 119.612 4.164 119.416 3.66 119.256V122.232H3.672ZM7.48838 122.16C8.84838 121.248 9.93638 120.344 10.7524 119.448C11.5684 118.544 11.9764 117.704 11.9764 116.928C11.9764 116.448 11.8524 116.064 11.6044 115.776C11.3644 115.48 10.9724 115.332 10.4284 115.332C9.86838 115.332 9.44438 115.512 9.15638 115.872C8.86838 116.224 8.70838 116.712 8.67638 117.336H7.59638C7.65238 116.392 7.94438 115.668 8.47238 115.164C9.00038 114.652 9.68038 114.396 10.5124 114.396C11.3044 114.396 11.9324 114.608 12.3964 115.032C12.8604 115.456 13.0924 116.056 13.0924 116.832C13.0924 117.472 12.8844 118.124 12.4684 118.788C12.0604 119.444 11.5444 120.056 10.9204 120.624C10.3044 121.184 9.66838 121.66 9.01238 122.052H13.3084V122.952H7.48838V122.16ZM14.477 118.716C14.477 120.076 14.701 121.136 15.149 121.896C15.597 122.656 16.373 123.036 17.477 123.036C18.581 123.036 19.357 122.656 19.805 121.896C20.261 121.136 20.489 120.076 20.489 118.716C20.489 117.372 20.261 116.32 19.805 115.56C19.357 114.8 18.581 114.42 17.477 114.42C16.373 114.42 15.597 114.8 15.149 115.56C14.701 116.312 14.477 117.364 14.477 118.716ZM19.409 118.716C19.409 119.412 19.357 119.996 19.253 120.468C19.157 120.932 18.969 121.304 18.689 121.584C18.409 121.864 18.005 122.004 17.477 122.004C16.957 122.004 16.557 121.864 16.277 121.584C15.997 121.304 15.805 120.932 15.701 120.468C15.605 119.996 15.557 119.412 15.557 118.716C15.557 118.028 15.605 117.452 15.701 116.988C15.805 116.524 15.997 116.156 16.277 115.884C16.557 115.604 16.957 115.464 17.477 115.464C18.005 115.464 18.409 115.604 18.689 115.884C18.969 116.156 19.157 116.524 19.253 116.988C19.357 117.452 19.409 118.028 19.409 118.716ZM21.8481 118.716C21.8481 120.076 22.0721 121.136 22.5201 121.896C22.9681 122.656 23.7441 123.036 24.8481 123.036C25.9521 123.036 26.7281 122.656 27.1761 121.896C27.6321 121.136 27.8601 120.076 27.8601 118.716C27.8601 117.372 27.6321 116.32 27.1761 115.56C26.7281 114.8 25.9521 114.42 24.8481 114.42C23.7441 114.42 22.9681 114.8 22.5201 115.56C22.0721 116.312 21.8481 117.364 21.8481 118.716ZM26.7801 118.716C26.7801 119.412 26.7281 119.996 26.6241 120.468C26.5281 120.932 26.3401 121.304 26.0601 121.584C25.7801 121.864 25.3761 122.004 24.8481 122.004C24.3281 122.004 23.9281 121.864 23.6481 121.584C23.3681 121.304 23.1761 120.932 23.0721 120.468C22.9761 119.996 22.9281 119.412 22.9281 118.716C22.9281 118.028 22.9761 117.452 23.0721 116.988C23.1761 116.524 23.3681 116.156 23.6481 115.884C23.9281 115.604 24.3281 115.464 24.8481 115.464C25.3761 115.464 25.7801 115.604 26.0601 115.884C26.3401 116.156 26.5281 116.524 26.6241 116.988C26.7281 117.452 26.7801 118.028 26.7801 118.716ZM31.5112 118.728L35.3752 123H34.0312L30.5032 119.052V123H29.4112V114.54H30.5032V118.464L34.0432 114.54H35.3752L31.5112 118.728Z" fill="#9E9E9E"/>
<path d="M3.66 74.26C4.284 74.452 4.768 74.624 5.112 74.776C5.456 74.928 5.756 75.168 6.012 75.496C6.268 75.816 6.396 76.252 6.396 76.804C6.396 77.204 6.296 77.576 6.096 77.92C5.904 78.264 5.604 78.544 5.196 78.76C4.788 78.976 4.288 79.084 3.696 79.084H3.66V80.044H3.288V79.06C2.528 78.988 1.908 78.74 1.428 78.316C0.948 77.884 0.68 77.352 0.624 76.72H1.788C1.82 77.056 1.964 77.372 2.22 77.668C2.484 77.956 2.84 78.136 3.288 78.208V75.136C2.672 74.952 2.192 74.788 1.848 74.644C1.512 74.492 1.216 74.256 0.96 73.936C0.712 73.616 0.588 73.188 0.588 72.652C0.588 72.212 0.7 71.824 0.924 71.488C1.148 71.152 1.464 70.892 1.872 70.708C2.28 70.524 2.752 70.432 3.288 70.432V69.4H3.66V70.444C4.404 70.5 4.996 70.728 5.436 71.128C5.876 71.528 6.136 72.012 6.216 72.58H5.04C4.984 72.276 4.84 72.004 4.608 71.764C4.376 71.524 4.06 71.372 3.66 71.308V74.26ZM1.764 72.604C1.764 73.012 1.892 73.328 2.148 73.552C2.412 73.776 2.792 73.972 3.288 74.14V71.284C2.824 71.284 2.452 71.4 2.172 71.632C1.9 71.856 1.764 72.18 1.764 72.604ZM3.672 78.232C4.168 78.232 4.552 78.1 4.824 77.836C5.096 77.572 5.232 77.236 5.232 76.828C5.232 76.404 5.096 76.076 4.824 75.844C4.552 75.612 4.164 75.416 3.66 75.256V78.232H3.672ZM7.48838 78.16C8.84838 77.248 9.93638 76.344 10.7524 75.448C11.5684 74.544 11.9764 73.704 11.9764 72.928C11.9764 72.448 11.8524 72.064 11.6044 71.776C11.3644 71.48 10.9724 71.332 10.4284 71.332C9.86838 71.332 9.44438 71.512 9.15638 71.872C8.86838 72.224 8.70838 72.712 8.67638 73.336H7.59638C7.65238 72.392 7.94438 71.668 8.47238 71.164C9.00038 70.652 9.68038 70.396 10.5124 70.396C11.3044 70.396 11.9324 70.608 12.3964 71.032C12.8604 71.456 13.0924 72.056 13.0924 72.832C13.0924 73.472 12.8844 74.124 12.4684 74.788C12.0604 75.444 11.5444 76.056 10.9204 76.624C10.3044 77.184 9.66838 77.66 9.01238 78.052H13.3084V78.952H7.48838V78.16ZM20.177 71.404H15.833V74.236C16.033 73.964 16.321 73.748 16.697 73.588C17.073 73.428 17.485 73.348 17.933 73.348C18.533 73.348 19.029 73.476 19.421 73.732C19.821 73.98 20.113 74.312 20.297 74.728C20.489 75.136 20.585 75.592 20.585 76.096C20.585 76.968 20.341 77.68 19.853 78.232C19.365 78.784 18.649 79.06 17.705 79.06C16.857 79.06 16.165 78.832 15.629 78.376C15.093 77.912 14.793 77.292 14.729 76.516H15.809C15.897 77.012 16.101 77.4 16.421 77.68C16.749 77.952 17.161 78.088 17.657 78.088C18.273 78.088 18.737 77.904 19.049 77.536C19.361 77.168 19.517 76.684 19.517 76.084C19.517 75.5 19.357 75.044 19.037 74.716C18.717 74.388 18.265 74.224 17.681 74.224C17.265 74.224 16.901 74.316 16.589 74.5C16.277 74.676 16.041 74.916 15.881 75.22H14.825V70.432H20.177V71.404ZM21.8715 74.716C21.8715 76.076 22.0955 77.136 22.5435 77.896C22.9915 78.656 23.7675 79.036 24.8715 79.036C25.9755 79.036 26.7515 78.656 27.1995 77.896C27.6555 77.136 27.8835 76.076 27.8835 74.716C27.8835 73.372 27.6555 72.32 27.1995 71.56C26.7515 70.8 25.9755 70.42 24.8715 70.42C23.7675 70.42 22.9915 70.8 22.5435 71.56C22.0955 72.312 21.8715 73.364 21.8715 74.716ZM26.8035 74.716C26.8035 75.412 26.7515 75.996 26.6475 76.468C26.5515 76.932 26.3635 77.304 26.0835 77.584C25.8035 77.864 25.3995 78.004 24.8715 78.004C24.3515 78.004 23.9515 77.864 23.6715 77.584C23.3915 77.304 23.1995 76.932 23.0955 76.468C22.9995 75.996 22.9515 75.412 22.9515 74.716C22.9515 74.028 22.9995 73.452 23.0955 72.988C23.1995 72.524 23.3915 72.156 23.6715 71.884C23.9515 71.604 24.3515 71.464 24.8715 71.464C25.3995 71.464 25.8035 71.604 26.0835 71.884C26.3635 72.156 26.5515 72.524 26.6475 72.988C26.7515 73.452 26.8035 74.028 26.8035 74.716ZM31.5346 74.728L35.3986 79H34.0546L30.5266 75.052V79H29.4346V70.54H30.5266V74.464L34.0666 70.54H35.3986L31.5346 74.728Z" fill="#9E9E9E"/>
<path d="M3.66 30.26C4.284 30.452 4.768 30.624 5.112 30.776C5.456 30.928 5.756 31.168 6.012 31.496C6.268 31.816 6.396 32.252 6.396 32.804C6.396 33.204 6.296 33.576 6.096 33.92C5.904 34.264 5.604 34.544 5.196 34.76C4.788 34.976 4.288 35.084 3.696 35.084H3.66V36.044H3.288V35.06C2.528 34.988 1.908 34.74 1.428 34.316C0.948 33.884 0.68 33.352 0.624 32.72H1.788C1.82 33.056 1.964 33.372 2.22 33.668C2.484 33.956 2.84 34.136 3.288 34.208V31.136C2.672 30.952 2.192 30.788 1.848 30.644C1.512 30.492 1.216 30.256 0.96 29.936C0.712 29.616 0.588 29.188 0.588 28.652C0.588 28.212 0.7 27.824 0.924 27.488C1.148 27.152 1.464 26.892 1.872 26.708C2.28 26.524 2.752 26.432 3.288 26.432V25.4H3.66V26.444C4.404 26.5 4.996 26.728 5.436 27.128C5.876 27.528 6.136 28.012 6.216 28.58H5.04C4.984 28.276 4.84 28.004 4.608 27.764C4.376 27.524 4.06 27.372 3.66 27.308V30.26ZM1.764 28.604C1.764 29.012 1.892 29.328 2.148 29.552C2.412 29.776 2.792 29.972 3.288 30.14V27.284C2.824 27.284 2.452 27.4 2.172 27.632C1.9 27.856 1.764 28.18 1.764 28.604ZM3.672 34.232C4.168 34.232 4.552 34.1 4.824 33.836C5.096 33.572 5.232 33.236 5.232 32.828C5.232 32.404 5.096 32.076 4.824 31.844C4.552 31.612 4.164 31.416 3.66 31.256V34.232H3.672ZM10.5724 26.312C11.1164 26.312 11.5844 26.408 11.9764 26.6C12.3684 26.792 12.6644 27.056 12.8644 27.392C13.0644 27.728 13.1644 28.108 13.1644 28.532C13.1644 29.06 13.0084 29.504 12.6964 29.864C12.3924 30.224 11.9444 30.44 11.3524 30.512V30.584C11.9684 30.744 12.4484 30.992 12.7924 31.328C13.1444 31.664 13.3204 32.128 13.3204 32.72C13.3204 33.416 13.0884 33.984 12.6244 34.424C12.1604 34.864 11.4924 35.084 10.6204 35.084C9.74838 35.084 9.04038 34.86 8.49638 34.412C7.96038 33.956 7.64438 33.292 7.54838 32.42H8.62838C8.70038 32.948 8.90038 33.368 9.22838 33.68C9.56438 33.992 10.0164 34.148 10.5844 34.148C11.1204 34.148 11.5324 34.012 11.8204 33.74C12.1084 33.46 12.2524 33.1 12.2524 32.66C12.2524 32.132 12.0444 31.732 11.6284 31.46C11.2204 31.18 10.6364 31.04 9.87638 31.04H9.58838V30.128H9.87638C11.3484 30.128 12.0844 29.636 12.0844 28.652C12.0844 28.22 11.9484 27.876 11.6764 27.62C11.4044 27.364 11.0284 27.236 10.5484 27.236C10.0684 27.236 9.66438 27.376 9.33638 27.656C9.00838 27.928 8.81638 28.332 8.76038 28.868H7.69238C7.74838 28.068 8.02438 27.444 8.52038 26.996C9.02438 26.54 9.70838 26.312 10.5724 26.312ZM14.7348 30.716C14.7348 32.076 14.9588 33.136 15.4068 33.896C15.8548 34.656 16.6308 35.036 17.7348 35.036C18.8388 35.036 19.6148 34.656 20.0628 33.896C20.5188 33.136 20.7468 32.076 20.7468 30.716C20.7468 29.372 20.5188 28.32 20.0628 27.56C19.6148 26.8 18.8388 26.42 17.7348 26.42C16.6308 26.42 15.8548 26.8 15.4068 27.56C14.9588 28.312 14.7348 29.364 14.7348 30.716ZM19.6668 30.716C19.6668 31.412 19.6148 31.996 19.5108 32.468C19.4148 32.932 19.2268 33.304 18.9468 33.584C18.6668 33.864 18.2628 34.004 17.7348 34.004C17.2148 34.004 16.8148 33.864 16.5348 33.584C16.2548 33.304 16.0628 32.932 15.9588 32.468C15.8628 31.996 15.8148 31.412 15.8148 30.716C15.8148 30.028 15.8628 29.452 15.9588 28.988C16.0628 28.524 16.2548 28.156 16.5348 27.884C16.8148 27.604 17.2148 27.464 17.7348 27.464C18.2628 27.464 18.6668 27.604 18.9468 27.884C19.2268 28.156 19.4148 28.524 19.5108 28.988C19.6148 29.452 19.6668 30.028 19.6668 30.716ZM22.1059 30.716C22.1059 32.076 22.3299 33.136 22.7779 33.896C23.2259 34.656 24.0019 35.036 25.1059 35.036C26.2099 35.036 26.9859 34.656 27.4339 33.896C27.8899 33.136 28.1179 32.076 28.1179 30.716C28.1179 29.372 27.8899 28.32 27.4339 27.56C26.9859 26.8 26.2099 26.42 25.1059 26.42C24.0019 26.42 23.2259 26.8 22.7779 27.56C22.3299 28.312 22.1059 29.364 22.1059 30.716ZM27.0379 30.716C27.0379 31.412 26.9859 31.996 26.8819 32.468C26.7859 32.932 26.5979 33.304 26.3179 33.584C26.0379 33.864 25.6339 34.004 25.1059 34.004C24.5859 34.004 24.1859 33.864 23.9059 33.584C23.6259 33.304 23.4339 32.932 23.3299 32.468C23.2339 31.996 23.1859 31.412 23.1859 30.716C23.1859 30.028 23.2339 29.452 23.3299 28.988C23.4339 28.524 23.6259 28.156 23.9059 27.884C24.1859 27.604 24.5859 27.464 25.1059 27.464C25.6339 27.464 26.0379 27.604 26.3179 27.884C26.5979 28.156 26.7859 28.524 26.8819 28.988C26.9859 29.452 27.0379 30.028 27.0379 30.716ZM31.769 30.728L35.633 35H34.289L30.761 31.052V35H29.669V26.54H30.761V30.464L34.301 26.54H35.633L31.769 30.728Z" fill="#9E9E9E"/>
<line x1="55" y1="29.5" x2="530" y2="29.5" stroke="#F5F5F5"/>
<line x1="55" y1="73.5" x2="530" y2="73.5" stroke="#F5F5F5"/>
<line x1="55" y1="117.5" x2="530" y2="117.5" stroke="#F5F5F5"/>
<line x1="55" y1="161.5" x2="530" y2="161.5" stroke="#F5F5F5"/>
<line x1="55" y1="205.5" x2="530" y2="205.5" stroke="#F5F5F5"/>
<line x1="55" y1="249.5" x2="530" y2="249.5" stroke="#F5F5F5"/>
<line x1="55" y1="293.5" x2="530" y2="293.5" stroke="#F5F5F5"/>
<path d="M120.879 249C83.0704 255.8 60.5695 223.333 55 205.5L55.4774 293.5H530V205.5C361.482 264 464.598 31 358.141 30.5C251.683 30 285.578 154 218.266 170.5C150.955 187 168.141 240.5 120.879 249Z" fill="#EEFFFF"/>
<path d="M55.4773 205.5C61.0468 223.333 83.0703 255.8 120.879 249C168.141 240.5 150.955 187 218.266 170.5C285.578 154 251.683 30 358.141 30.5C464.598 31 361.482 264 530 205.5" stroke="#3BCAC9" stroke-linecap="round" stroke-linejoin="round"/>
<circle cx="56" cy="205" r="4" fill="#3BCAC9"/>
<circle cx="213" cy="172" r="4" fill="#3BCAC9"/>
<circle cx="366" cy="30" r="4" fill="#FF9047"/>
<circle cx="530" cy="205" r="4" fill="#3BCAC9"/>
<rect x="298" width="137" height="23" rx="5" fill="#FF9047"/>
<path d="M298 5C298 2.23858 300.239 0 303 0H360V23H303C300.239 23 298 20.7614 298 18V5Z" fill="#3BCAC9"/>
<path d="M305.588 7.312C306.132 7.312 306.6 7.408 306.992 7.6C307.384 7.792 307.68 8.056 307.88 8.392C308.08 8.728 308.18 9.108 308.18 9.532C308.18 10.06 308.024 10.504 307.712 10.864C307.408 11.224 306.96 11.44 306.368 11.512V11.584C306.984 11.744 307.464 11.992 307.808 12.328C308.16 12.664 308.336 13.128 308.336 13.72C308.336 14.416 308.104 14.984 307.64 15.424C307.176 15.864 306.508 16.084 305.636 16.084C304.764 16.084 304.056 15.86 303.512 15.412C302.976 14.956 302.66 14.292 302.564 13.42H303.644C303.716 13.948 303.916 14.368 304.244 14.68C304.58 14.992 305.032 15.148 305.6 15.148C306.136 15.148 306.548 15.012 306.836 14.74C307.124 14.46 307.268 14.1 307.268 13.66C307.268 13.132 307.06 12.732 306.644 12.46C306.236 12.18 305.652 12.04 304.892 12.04H304.604V11.128H304.892C306.364 11.128 307.1 10.636 307.1 9.652C307.1 9.22 306.964 8.876 306.692 8.62C306.42 8.364 306.044 8.236 305.564 8.236C305.084 8.236 304.68 8.376 304.352 8.656C304.024 8.928 303.832 9.332 303.776 9.868H302.708C302.764 9.068 303.04 8.444 303.536 7.996C304.04 7.54 304.724 7.312 305.588 7.312ZM311.034 10.744C311.25 10.288 311.566 9.936 311.982 9.688C312.398 9.432 312.894 9.304 313.47 9.304V10.492H313.134C312.518 10.492 312.014 10.652 311.622 10.972C311.23 11.284 311.034 11.804 311.034 12.532V16H309.942V9.412H311.034V10.744ZM317.248 9.328C317.888 9.328 318.428 9.488 318.868 9.808C319.316 10.128 319.628 10.556 319.804 11.092V7.12H320.896V16H319.804V14.32C319.628 14.856 319.316 15.284 318.868 15.604C318.428 15.924 317.888 16.084 317.248 16.084C316.664 16.084 316.144 15.948 315.688 15.676C315.232 15.404 314.872 15.016 314.608 14.512C314.352 14 314.224 13.4 314.224 12.712C314.224 12.024 314.352 11.424 314.608 10.912C314.872 10.4 315.232 10.008 315.688 9.736C316.144 9.464 316.664 9.328 317.248 9.328ZM317.56 10.3C316.888 10.3 316.348 10.516 315.94 10.948C315.54 11.372 315.34 11.96 315.34 12.712C315.34 13.464 315.54 14.056 315.94 14.488C316.348 14.912 316.888 15.124 317.56 15.124C317.992 15.124 318.376 15.024 318.712 14.824C319.056 14.624 319.324 14.344 319.516 13.984C319.708 13.616 319.804 13.192 319.804 12.712C319.804 12.232 319.708 11.808 319.516 11.44C319.324 11.072 319.056 10.792 318.712 10.6C318.376 10.4 317.992 10.3 317.56 10.3ZM336.003 7.54L333.855 16H332.523L330.567 9.088L328.611 16H327.279L325.119 7.54H326.331L327.951 14.728L329.955 7.54H331.167L333.171 14.704L334.803 7.54H336.003ZM343.342 12.34C343.342 12.572 343.326 12.772 343.294 12.94H338.026C338.05 13.692 338.262 14.256 338.662 14.632C339.07 15.008 339.566 15.196 340.15 15.196C340.678 15.196 341.118 15.064 341.47 14.8C341.83 14.528 342.05 14.168 342.13 13.72H343.294C343.214 14.176 343.034 14.584 342.754 14.944C342.482 15.304 342.126 15.584 341.686 15.784C341.246 15.984 340.75 16.084 340.198 16.084C339.566 16.084 339.006 15.948 338.518 15.676C338.03 15.404 337.646 15.016 337.366 14.512C337.094 14 336.958 13.4 336.958 12.712C336.958 12.024 337.094 11.424 337.366 10.912C337.646 10.4 338.03 10.008 338.518 9.736C339.006 9.464 339.566 9.328 340.198 9.328C340.838 9.328 341.394 9.464 341.866 9.736C342.346 10.008 342.71 10.372 342.958 10.828C343.214 11.284 343.342 11.788 343.342 12.34ZM342.238 12.412C342.262 11.924 342.182 11.516 341.998 11.188C341.814 10.86 341.562 10.616 341.242 10.456C340.922 10.296 340.574 10.216 340.198 10.216C339.598 10.216 339.094 10.404 338.686 10.78C338.278 11.148 338.058 11.692 338.026 12.412H342.238ZM350.831 12.34C350.831 12.572 350.815 12.772 350.783 12.94H345.515C345.539 13.692 345.751 14.256 346.151 14.632C346.559 15.008 347.055 15.196 347.639 15.196C348.167 15.196 348.607 15.064 348.959 14.8C349.319 14.528 349.539 14.168 349.619 13.72H350.783C350.703 14.176 350.523 14.584 350.243 14.944C349.971 15.304 349.615 15.584 349.175 15.784C348.735 15.984 348.239 16.084 347.687 16.084C347.055 16.084 346.495 15.948 346.007 15.676C345.519 15.404 345.135 15.016 344.855 14.512C344.583 14 344.447 13.4 344.447 12.712C344.447 12.024 344.583 11.424 344.855 10.912C345.135 10.4 345.519 10.008 346.007 9.736C346.495 9.464 347.055 9.328 347.687 9.328C348.327 9.328 348.883 9.464 349.355 9.736C349.835 10.008 350.199 10.372 350.447 10.828C350.703 11.284 350.831 11.788 350.831 12.34ZM349.727 12.412C349.751 11.924 349.671 11.516 349.487 11.188C349.303 10.86 349.051 10.616 348.731 10.456C348.411 10.296 348.063 10.216 347.687 10.216C347.087 10.216 346.583 10.404 346.175 10.78C345.767 11.148 345.547 11.692 345.515 12.412H349.727ZM355.871 16L353.351 13.036V16H352.259V7.12H353.351V12.28L355.835 9.412H357.167L354.215 12.688L357.239 16H355.871Z" fill="white"/>
<path d="M370.228 13.804C370.228 14.204 370.132 14.576 369.94 14.92C369.748 15.264 369.456 15.544 369.064 15.76C368.672 15.976 368.188 16.084 367.612 16.084C367.052 16.084 366.552 15.984 366.112 15.784C365.68 15.576 365.332 15.296 365.068 14.944C364.812 14.584 364.664 14.176 364.624 13.72H365.788C365.812 13.96 365.892 14.196 366.028 14.428C366.172 14.652 366.372 14.84 366.628 14.992C366.892 15.136 367.208 15.208 367.576 15.208C368.056 15.208 368.424 15.08 368.68 14.824C368.936 14.568 369.064 14.24 369.064 13.84C369.064 13.496 368.972 13.216 368.788 13C368.612 12.784 368.392 12.616 368.128 12.496C367.864 12.368 367.504 12.232 367.048 12.088C366.512 11.912 366.08 11.748 365.752 11.596C365.432 11.436 365.156 11.2 364.924 10.888C364.7 10.576 364.588 10.164 364.588 9.652C364.588 9.212 364.692 8.824 364.9 8.488C365.116 8.152 365.42 7.892 365.812 7.708C366.212 7.524 366.68 7.432 367.216 7.432C368.048 7.432 368.708 7.636 369.196 8.044C369.684 8.444 369.968 8.956 370.048 9.58H368.872C368.808 9.244 368.636 8.948 368.356 8.692C368.076 8.436 367.696 8.308 367.216 8.308C366.776 8.308 366.424 8.424 366.16 8.656C365.896 8.88 365.764 9.2 365.764 9.616C365.764 9.944 365.848 10.212 366.016 10.42C366.192 10.62 366.408 10.78 366.664 10.9C366.92 11.012 367.272 11.14 367.72 11.284C368.264 11.46 368.7 11.628 369.028 11.788C369.364 11.948 369.648 12.192 369.88 12.52C370.112 12.84 370.228 13.268 370.228 13.804ZM374.396 9.328C375.036 9.328 375.576 9.488 376.016 9.808C376.464 10.128 376.776 10.556 376.952 11.092V9.412H378.044V16H376.952V14.32C376.776 14.856 376.464 15.284 376.016 15.604C375.576 15.924 375.036 16.084 374.396 16.084C373.812 16.084 373.292 15.948 372.836 15.676C372.38 15.404 372.02 15.016 371.756 14.512C371.5 14 371.372 13.4 371.372 12.712C371.372 12.024 371.5 11.424 371.756 10.912C372.02 10.4 372.38 10.008 372.836 9.736C373.292 9.464 373.812 9.328 374.396 9.328ZM374.708 10.3C374.036 10.3 373.496 10.516 373.088 10.948C372.688 11.372 372.488 11.96 372.488 12.712C372.488 13.464 372.688 14.056 373.088 14.488C373.496 14.912 374.036 15.124 374.708 15.124C375.14 15.124 375.524 15.024 375.86 14.824C376.204 14.624 376.472 14.344 376.664 13.984C376.856 13.616 376.952 13.192 376.952 12.712C376.952 12.232 376.856 11.808 376.664 11.44C376.472 11.072 376.204 10.792 375.86 10.6C375.524 10.4 375.14 10.3 374.708 10.3ZM380.874 7.12V16H379.782V7.12H380.874ZM388.69 12.34C388.69 12.572 388.674 12.772 388.642 12.94H383.374C383.398 13.692 383.61 14.256 384.01 14.632C384.418 15.008 384.914 15.196 385.498 15.196C386.026 15.196 386.466 15.064 386.818 14.8C387.178 14.528 387.398 14.168 387.478 13.72H388.642C388.562 14.176 388.382 14.584 388.102 14.944C387.83 15.304 387.474 15.584 387.034 15.784C386.594 15.984 386.098 16.084 385.546 16.084C384.914 16.084 384.354 15.948 383.866 15.676C383.378 15.404 382.994 15.016 382.714 14.512C382.442 14 382.306 13.4 382.306 12.712C382.306 12.024 382.442 11.424 382.714 10.912C382.994 10.4 383.378 10.008 383.866 9.736C384.354 9.464 384.914 9.328 385.546 9.328C386.186 9.328 386.742 9.464 387.214 9.736C387.694 10.008 388.058 10.372 388.306 10.828C388.562 11.284 388.69 11.788 388.69 12.34ZM387.586 12.412C387.61 11.924 387.53 11.516 387.346 11.188C387.162 10.86 386.91 10.616 386.59 10.456C386.27 10.296 385.922 10.216 385.546 10.216C384.946 10.216 384.442 10.404 384.034 10.78C383.626 11.148 383.406 11.692 383.374 12.412H387.586ZM391.066 9.532V10.816H389.746V9.532H391.066ZM391.066 14.716V16H389.746V14.716H391.066ZM398.164 11.26C398.788 11.452 399.272 11.624 399.616 11.776C399.96 11.928 400.26 12.168 400.516 12.496C400.772 12.816 400.9 13.252 400.9 13.804C400.9 14.204 400.8 14.576 400.6 14.92C400.408 15.264 400.108 15.544 399.7 15.76C399.292 15.976 398.792 16.084 398.2 16.084H398.164V17.044H397.792V16.06C397.032 15.988 396.412 15.74 395.932 15.316C395.452 14.884 395.184 14.352 395.128 13.72H396.292C396.324 14.056 396.468 14.372 396.724 14.668C396.988 14.956 397.344 15.136 397.792 15.208V12.136C397.176 11.952 396.696 11.788 396.352 11.644C396.016 11.492 395.72 11.256 395.464 10.936C395.216 10.616 395.092 10.188 395.092 9.652C395.092 9.212 395.204 8.824 395.428 8.488C395.652 8.152 395.968 7.892 396.376 7.708C396.784 7.524 397.256 7.432 397.792 7.432V6.4H398.164V7.444C398.908 7.5 399.5 7.728 399.94 8.128C400.38 8.528 400.64 9.012 400.72 9.58H399.544C399.488 9.276 399.344 9.004 399.112 8.764C398.88 8.524 398.564 8.372 398.164 8.308V11.26ZM396.268 9.604C396.268 10.012 396.396 10.328 396.652 10.552C396.916 10.776 397.296 10.972 397.792 11.14V8.284C397.328 8.284 396.956 8.4 396.676 8.632C396.404 8.856 396.268 9.18 396.268 9.604ZM398.176 15.232C398.672 15.232 399.056 15.1 399.328 14.836C399.6 14.572 399.736 14.236 399.736 13.828C399.736 13.404 399.6 13.076 399.328 12.844C399.056 12.612 398.668 12.416 398.164 12.256V15.232H398.176ZM405.076 7.312C405.62 7.312 406.088 7.408 406.48 7.6C406.872 7.792 407.168 8.056 407.368 8.392C407.568 8.728 407.668 9.108 407.668 9.532C407.668 10.06 407.512 10.504 407.2 10.864C406.896 11.224 406.448 11.44 405.856 11.512V11.584C406.472 11.744 406.952 11.992 407.296 12.328C407.648 12.664 407.824 13.128 407.824 13.72C407.824 14.416 407.592 14.984 407.128 15.424C406.664 15.864 405.996 16.084 405.124 16.084C404.252 16.084 403.544 15.86 403 15.412C402.464 14.956 402.148 14.292 402.052 13.42H403.132C403.204 13.948 403.404 14.368 403.732 14.68C404.068 14.992 404.52 15.148 405.088 15.148C405.624 15.148 406.036 15.012 406.324 14.74C406.612 14.46 406.756 14.1 406.756 13.66C406.756 13.132 406.548 12.732 406.132 12.46C405.724 12.18 405.14 12.04 404.38 12.04H404.092V11.128H404.38C405.852 11.128 406.588 10.636 406.588 9.652C406.588 9.22 406.452 8.876 406.18 8.62C405.908 8.364 405.532 8.236 405.052 8.236C404.572 8.236 404.168 8.376 403.84 8.656C403.512 8.928 403.32 9.332 403.264 9.868H402.196C402.252 9.068 402.528 8.444 403.024 7.996C403.528 7.54 404.212 7.312 405.076 7.312ZM409.239 11.716C409.239 13.076 409.463 14.136 409.911 14.896C410.359 15.656 411.135 16.036 412.239 16.036C413.343 16.036 414.119 15.656 414.567 14.896C415.023 14.136 415.251 13.076 415.251 11.716C415.251 10.372 415.023 9.32 414.567 8.56C414.119 7.8 413.343 7.42 412.239 7.42C411.135 7.42 410.359 7.8 409.911 8.56C409.463 9.312 409.239 10.364 409.239 11.716ZM414.171 11.716C414.171 12.412 414.119 12.996 414.015 13.468C413.919 13.932 413.731 14.304 413.451 14.584C413.171 14.864 412.767 15.004 412.239 15.004C411.719 15.004 411.319 14.864 411.039 14.584C410.759 14.304 410.567 13.932 410.463 13.468C410.367 12.996 410.319 12.412 410.319 11.716C410.319 11.028 410.367 10.452 410.463 9.988C410.567 9.524 410.759 9.156 411.039 8.884C411.319 8.604 411.719 8.464 412.239 8.464C412.767 8.464 413.171 8.604 413.451 8.884C413.731 9.156 413.919 9.524 414.015 9.988C414.119 10.452 414.171 11.028 414.171 11.716ZM416.61 11.716C416.61 13.076 416.834 14.136 417.282 14.896C417.73 15.656 418.506 16.036 419.61 16.036C420.714 16.036 421.49 15.656 421.938 14.896C422.394 14.136 422.622 13.076 422.622 11.716C422.622 10.372 422.394 9.32 421.938 8.56C421.49 7.8 420.714 7.42 419.61 7.42C418.506 7.42 417.73 7.8 417.282 8.56C416.834 9.312 416.61 10.364 416.61 11.716ZM421.542 11.716C421.542 12.412 421.49 12.996 421.386 13.468C421.29 13.932 421.102 14.304 420.822 14.584C420.542 14.864 420.138 15.004 419.61 15.004C419.09 15.004 418.69 14.864 418.41 14.584C418.13 14.304 417.938 13.932 417.834 13.468C417.738 12.996 417.69 12.412 417.69 11.716C417.69 11.028 417.738 10.452 417.834 9.988C417.938 9.524 418.13 9.156 418.41 8.884C418.69 8.604 419.09 8.464 419.61 8.464C420.138 8.464 420.542 8.604 420.822 8.884C421.102 9.156 421.29 9.524 421.386 9.988C421.49 10.452 421.542 11.028 421.542 11.716ZM426.273 11.728L430.137 16H428.793L425.265 12.052V16H424.173V7.54H425.265V11.464L428.805 7.54H430.137L426.273 11.728Z" fill="white"/>
</svg>
