<svg width="18" height="18" viewBox="0 0 18 18" fill="none" xmlns="http://www.w3.org/2000/svg">
<path fill-rule="evenodd" clip-rule="evenodd" d="M2.49212 0H2.42289C2.10584 0 1.83309 1.03154e-08 1.59219 0.0567649C1.21925 0.145879 0.878263 0.3365 0.607011 0.607508C0.335759 0.878516 0.14483 1.21933 0.0553803 1.59219C-5.1577e-08 1.83309 0 2.10445 0 2.42289V5.88416C0 6.20122 1.03154e-08 6.47396 0.0567649 6.71487C0.145879 7.0878 0.3365 7.42879 0.607508 7.70004C0.878516 7.97129 1.21933 8.16222 1.59219 8.25167C1.83309 8.30705 2.10445 8.30705 2.42289 8.30705H5.88416C6.20122 8.30705 6.47396 8.30705 6.71487 8.25029C7.0878 8.16117 7.42879 7.97055 7.70004 7.69955C7.97129 7.42854 8.16222 7.08772 8.25167 6.71487C8.30705 6.47396 8.30705 6.2026 8.30705 5.88416V2.42289C8.30705 2.10584 8.30705 1.83309 8.25029 1.59219C8.16117 1.21925 7.97055 0.878263 7.69955 0.607011C7.42854 0.335759 7.08772 0.14483 6.71487 0.0553803C6.47396 -5.1577e-08 6.2026 0 5.88416 0H2.49212ZM1.91478 1.40389C1.97431 1.39005 2.06707 1.38451 2.49212 1.38451H5.81494C6.24137 1.38451 6.33274 1.38866 6.39228 1.40389C6.51665 1.43363 6.63035 1.49724 6.72077 1.58767C6.81119 1.67809 6.8748 1.79179 6.90455 1.91616C6.91839 1.97431 6.92254 2.06569 6.92254 2.49212V5.81494C6.92254 6.24137 6.91839 6.33274 6.90316 6.39228C6.87342 6.51665 6.80981 6.63035 6.71939 6.72077C6.62896 6.81119 6.51526 6.8748 6.39089 6.90455C6.33413 6.91701 6.24275 6.92254 5.81494 6.92254H2.49212C2.06569 6.92254 1.97431 6.91839 1.91478 6.90316C1.79041 6.87342 1.6767 6.80981 1.58628 6.71939C1.49586 6.62896 1.43225 6.51526 1.40251 6.39089C1.39005 6.33413 1.38451 6.24275 1.38451 5.81494V2.49212C1.38451 2.06569 1.38866 1.97431 1.40389 1.91478C1.43363 1.79041 1.49724 1.6767 1.58767 1.58628C1.67809 1.49586 1.79179 1.43225 1.91616 1.40251L1.91478 1.40389ZM12.1837 0H12.1145C11.7974 0 11.5247 1.03154e-08 11.2837 0.0567649C10.9108 0.145879 10.5698 0.3365 10.2986 0.607508C10.0273 0.878516 9.83639 1.21933 9.74694 1.59219C9.69156 1.83309 9.69156 2.10445 9.69156 2.42289V5.88416C9.69156 6.20122 9.69156 6.47396 9.74833 6.71487C9.83744 7.0878 10.0281 7.42879 10.2991 7.70004C10.5701 7.97129 10.9109 8.16222 11.2837 8.25167C11.5247 8.30705 11.796 8.30705 12.1145 8.30705H15.5757C15.8928 8.30705 16.1655 8.30705 16.4064 8.25029C16.7794 8.16117 17.1204 7.97055 17.3916 7.69955C17.6629 7.42854 17.8538 7.08772 17.9432 6.71487C17.9986 6.47396 17.9986 6.2026 17.9986 5.88416V2.42289C17.9986 2.10584 17.9986 1.83309 17.9418 1.59219C17.8527 1.21925 17.6621 0.878263 17.3911 0.607011C17.1201 0.335759 16.7793 0.14483 16.4064 0.0553803C16.1655 -5.1577e-08 15.8942 0 15.5757 0H12.1837ZM11.6063 1.40389C11.6659 1.39005 11.7586 1.38451 12.1837 1.38451H15.5065C15.9329 1.38451 16.0243 1.38866 16.0838 1.40389C16.2082 1.43363 16.3219 1.49724 16.4123 1.58767C16.5028 1.67809 16.5664 1.79179 16.5961 1.91616C16.61 1.97431 16.6141 2.06569 16.6141 2.49212V5.81494C16.6141 6.24137 16.6086 6.33274 16.5947 6.39228C16.565 6.51665 16.5014 6.63035 16.411 6.72077C16.3205 6.81119 16.2068 6.8748 16.0825 6.90455C16.0243 6.91839 15.9329 6.92254 15.5065 6.92254H12.1837C11.7572 6.92254 11.6659 6.91839 11.6063 6.90316C11.482 6.87342 11.3683 6.80981 11.2778 6.71939C11.1874 6.62896 11.1238 6.51526 11.0941 6.39089C11.0816 6.33413 11.0761 6.24275 11.0761 5.81494V2.49212C11.0761 2.06569 11.0802 1.97431 11.0955 1.91478C11.1252 1.79041 11.1888 1.6767 11.2792 1.58628C11.3696 1.49586 11.4834 1.43225 11.6077 1.40251L11.6063 1.40389ZM2.42289 9.69156H5.88416C6.20122 9.69156 6.47396 9.69156 6.71487 9.74833C7.0878 9.83744 7.42879 10.0281 7.70004 10.2991C7.97129 10.5701 8.16222 10.9109 8.25167 11.2837C8.30705 11.5247 8.30705 11.796 8.30705 12.1145V15.5757C8.30705 15.8928 8.30705 16.1655 8.25029 16.4064C8.16117 16.7794 7.97055 17.1204 7.69955 17.3916C7.42854 17.6629 7.08772 17.8538 6.71487 17.9432C6.47396 17.9986 6.2026 17.9986 5.88416 17.9986H2.42289C2.10584 17.9986 1.83309 17.9986 1.59219 17.9418C1.21925 17.8527 0.878263 17.6621 0.607011 17.3911C0.335759 17.1201 0.14483 16.7793 0.0553803 16.4064C-5.1577e-08 16.1655 0 15.8942 0 15.5757V12.1145C0 11.7974 1.03154e-08 11.5247 0.0567649 11.2837C0.145879 10.9108 0.3365 10.5698 0.607508 10.2986C0.878516 10.0273 1.21933 9.83639 1.59219 9.74694C1.83309 9.69156 2.10445 9.69156 2.42289 9.69156ZM2.49212 11.0761C2.06569 11.0761 1.97431 11.0802 1.91478 11.0955C1.79041 11.1252 1.6767 11.1888 1.58628 11.2792C1.49586 11.3696 1.43225 11.4834 1.40251 11.6077C1.39005 11.6645 1.38451 11.7559 1.38451 12.1837V15.5065C1.38451 15.9329 1.38866 16.0243 1.40389 16.0838C1.43363 16.2082 1.49724 16.3219 1.58767 16.4123C1.67809 16.5028 1.79179 16.5664 1.91616 16.5961C1.97431 16.61 2.06569 16.6141 2.49212 16.6141H5.81494C6.24137 16.6141 6.33274 16.6086 6.39228 16.5947C6.51665 16.565 6.63035 16.5014 6.72077 16.411C6.81119 16.3205 6.8748 16.2068 6.90455 16.0825C6.91839 16.0243 6.92254 15.9329 6.92254 15.5065V12.1837C6.92254 11.7572 6.91839 11.6659 6.90316 11.6063C6.87342 11.482 6.80981 11.3683 6.71939 11.2778C6.62896 11.1874 6.51526 11.1238 6.39089 11.0941C6.33413 11.0816 6.24275 11.0761 5.81494 11.0761H2.49212ZM12.1837 9.69156H12.1145C11.7974 9.69156 11.5247 9.69156 11.2837 9.74833C10.9108 9.83744 10.5698 10.0281 10.2986 10.2991C10.0273 10.5701 9.83639 10.9109 9.74694 11.2837C9.69156 11.5247 9.69156 11.796 9.69156 12.1145V15.5757C9.69156 15.8928 9.69156 16.1655 9.74833 16.4064C9.83744 16.7794 10.0281 17.1204 10.2991 17.3916C10.5701 17.6629 10.9109 17.8538 11.2837 17.9432C11.5247 18 11.7974 18 12.1145 18H15.5757C15.8928 18 16.1655 18 16.4064 17.9432C16.7791 17.8539 17.1198 17.6632 17.3908 17.3922C17.6618 17.1212 17.8525 16.7805 17.9418 16.4078C17.9986 16.1669 17.9986 15.8942 17.9986 15.5771V12.1145C17.9986 11.7974 17.9986 11.5247 17.9418 11.2837C17.8527 10.9108 17.6621 10.5698 17.3911 10.2986C17.1201 10.0273 16.7793 9.83639 16.4064 9.74694C16.1655 9.69156 15.8942 9.69156 15.5757 9.69156H12.1837ZM11.6063 11.0955C11.6659 11.0816 11.7586 11.0761 12.1837 11.0761H15.5065C15.9329 11.0761 16.0243 11.0802 16.0838 11.0955C16.2082 11.1252 16.3219 11.1888 16.4123 11.2792C16.5028 11.3696 16.5664 11.4834 16.5961 11.6077C16.61 11.6659 16.6141 11.7572 16.6141 12.1837V15.5065C16.6141 15.9329 16.6086 16.0243 16.5947 16.0838C16.565 16.2082 16.5014 16.3219 16.411 16.4123C16.3205 16.5028 16.2068 16.5664 16.0825 16.5961C16.0243 16.61 15.9329 16.6141 15.5065 16.6141H12.1837C11.7572 16.6141 11.6659 16.6086 11.6063 16.5947C11.482 16.565 11.3683 16.5014 11.2778 16.411C11.1874 16.3205 11.1238 16.2068 11.0941 16.0825C11.0816 16.0257 11.0761 15.9343 11.0761 15.5065V12.1837C11.0761 11.7572 11.0802 11.6659 11.0955 11.6063C11.1252 11.482 11.1888 11.3683 11.2792 11.2778C11.3696 11.1874 11.4834 11.1238 11.6077 11.0941L11.6063 11.0955Z" fill="white"/>
</svg>
