<svg width="18" height="10" viewBox="0 0 18 10" fill="none" xmlns="http://www.w3.org/2000/svg">
<path d="M17.7339 0.266064C17.6503 0.181758 17.5508 0.114842 17.4412 0.0691763C17.3316 0.023511 17.214 0 17.0953 0C16.9766 0 16.859 0.023511 16.7494 0.0691763C16.6398 0.114842 16.5403 0.181758 16.4567 0.266064L10.799 5.93278L6.94019 2.06502C6.85658 1.98071 6.75709 1.9138 6.64748 1.86813C6.53787 1.82247 6.42031 1.79896 6.30156 1.79896C6.18282 1.79896 6.06526 1.82247 5.95565 1.86813C5.84604 1.9138 5.74655 1.98071 5.66293 2.06502L0.266064 7.46189C0.181757 7.54551 0.114841 7.64499 0.0691761 7.7546C0.0235108 7.86421 0 7.98178 0 8.10052C0 8.21926 0.0235108 8.33683 0.0691761 8.44644C0.114841 8.55605 0.181757 8.65553 0.266064 8.73915C0.349682 8.82346 0.449166 8.89038 0.558776 8.93604C0.668385 8.98171 0.785952 9.00522 0.904694 9.00522C1.02344 9.00522 1.141 8.98171 1.25061 8.93604C1.36022 8.89038 1.45971 8.82346 1.54332 8.73915L6.30156 3.97192L10.1603 7.83967C10.2439 7.92398 10.3434 7.9909 10.453 8.03656C10.5626 8.08223 10.6802 8.10574 10.799 8.10574C10.9177 8.10574 11.0353 8.08223 11.1449 8.03656C11.2545 7.9909 11.354 7.92398 11.4376 7.83967L17.7339 1.54332C17.8182 1.45971 17.8852 1.36022 17.9308 1.25061C17.9765 1.141 18 1.02344 18 0.904694C18 0.785952 17.9765 0.668385 17.9308 0.558775C17.8852 0.449166 17.8182 0.349682 17.7339 0.266064Z" fill="#3BCAC9"/>
</svg>
