<svg width="18" height="19" viewBox="0 0 18 19" fill="none" xmlns="http://www.w3.org/2000/svg">
<path d="M8.3053 18.4889C8.65526 18.4808 8.9911 18.3493 9.25341 18.1174C9.51571 17.8856 9.68759 17.5685 9.73863 17.2222H6.81641C6.86889 17.5779 7.04881 17.9025 7.32269 18.1355C7.59656 18.3685 7.94575 18.4941 8.3053 18.4889V18.4889Z" fill="black"/>
<path d="M16.3667 14.9056C15.8309 14.428 15.3619 13.8805 14.9722 13.2778C14.5468 12.4459 14.2918 11.5374 14.2222 10.6056V7.86111C14.22 7.52775 14.1902 7.19514 14.1333 6.86667C13.6961 6.77926 13.2758 6.62167 12.8889 6.4C13.0364 6.87492 13.1113 7.36938 13.1111 7.86667V10.6111C13.1792 11.7478 13.4919 12.8564 14.0278 13.8611C14.4113 14.4689 14.8664 15.0284 15.3833 15.5278H1.15556C1.67245 15.0284 2.12755 14.4689 2.51111 13.8611C3.04701 12.8564 3.35968 11.7478 3.42778 10.6111V7.86111C3.42485 7.21816 3.54878 6.58095 3.79247 5.98596C4.03615 5.39097 4.39481 4.84989 4.8479 4.3937C5.30099 3.93752 5.83961 3.57519 6.43293 3.32745C7.02624 3.07972 7.6626 2.95146 8.30556 2.95C9.24654 2.95075 10.1664 3.22903 10.95 3.75C10.8636 3.43277 10.8151 3.10642 10.8056 2.77778V2.42778C10.2255 2.14242 9.60229 1.95472 8.96111 1.87222V1.17222C8.96111 0.975522 8.88297 0.786876 8.74388 0.647786C8.60479 0.508697 8.41615 0.430557 8.21944 0.430557C8.02274 0.430557 7.8341 0.508697 7.69501 0.647786C7.55592 0.786876 7.47778 0.975522 7.47778 1.17222V1.9C6.04207 2.10253 4.7281 2.81764 3.77846 3.9133C2.82882 5.00896 2.30763 6.41119 2.31111 7.86111V10.6056C2.24153 11.5374 1.98654 12.4459 1.56111 13.2778C1.17827 13.8791 0.716775 14.4265 0.188889 14.9056C0.129629 14.9576 0.0821341 15.0217 0.0495652 15.0935C0.0169964 15.1654 9.98868e-05 15.2433 0 15.3222V16.0778C0 16.2251 0.0585316 16.3664 0.162718 16.4706C0.266905 16.5748 0.408213 16.6333 0.555556 16.6333H16C16.1473 16.6333 16.2887 16.5748 16.3928 16.4706C16.497 16.3664 16.5556 16.2251 16.5556 16.0778V15.3222C16.5555 15.2433 16.5386 15.1654 16.506 15.0935C16.4734 15.0217 16.4259 14.9576 16.3667 14.9056V14.9056Z" fill="black"/>
<path d="M14.9721 5.55556C16.5062 5.55556 17.7499 4.3119 17.7499 2.77778C17.7499 1.24365 16.5062 0 14.9721 0C13.438 0 12.1943 1.24365 12.1943 2.77778C12.1943 4.3119 13.438 5.55556 14.9721 5.55556Z" fill="#FF5454"/>
</svg>
