<svg width="19" height="15" viewBox="0 0 19 15" fill="none" xmlns="http://www.w3.org/2000/svg">
<path d="M16.2499 14.9887C16.1678 14.9888 16.0865 14.9727 16.0107 14.9413C15.9349 14.9098 15.866 14.8637 15.8081 14.8055L2.05812 1.05548C1.94586 0.937318 1.8842 0.779975 1.88628 0.616999C1.88837 0.454023 1.95404 0.298309 2.06929 0.183058C2.18454 0.0678072 2.34025 0.00213789 2.50323 5.12821e-05C2.66621 -0.00203533 2.82355 0.0596261 2.94171 0.171888L16.6917 13.9219C16.7791 14.0093 16.8385 14.1206 16.8626 14.2418C16.8867 14.363 16.8743 14.4887 16.8271 14.6028C16.7798 14.717 16.6997 14.8146 16.597 14.8833C16.4943 14.9519 16.3735 14.9886 16.2499 14.9887V14.9887Z" fill="#B3B3B3"/>
<path d="M18.5548 8.16677C18.6841 7.96379 18.7525 7.72797 18.7518 7.48729C18.7511 7.24662 18.6814 7.01119 18.5509 6.80896C17.5173 5.21052 16.1763 3.85271 14.6731 2.88201C13.0079 1.80701 11.172 1.23865 9.3626 1.23865C8.40874 1.23996 7.46136 1.39548 6.55713 1.69919C6.53182 1.70761 6.50909 1.72237 6.4911 1.74206C6.47311 1.76174 6.46046 1.78571 6.45435 1.81167C6.44824 1.83763 6.44888 1.86473 6.4562 1.89037C6.46353 1.91602 6.4773 1.93936 6.4962 1.95818L8.34151 3.80349C8.36068 3.8227 8.38452 3.83658 8.41068 3.84377C8.43685 3.85096 8.46443 3.85122 8.49073 3.84451C9.11622 3.69208 9.77041 3.70325 10.3903 3.87694C11.0103 4.05063 11.575 4.381 12.0303 4.83623C12.4855 5.29146 12.8158 5.85623 12.9895 6.47615C13.1632 7.09607 13.1744 7.75027 13.022 8.37576C13.0153 8.40199 13.0156 8.4295 13.0228 8.45559C13.03 8.48168 13.0439 8.50545 13.063 8.52458L15.7173 11.1808C15.7449 11.2085 15.7819 11.2248 15.8209 11.2265C15.86 11.2283 15.8983 11.2153 15.9282 11.1902C16.9499 10.3193 17.8353 9.3002 18.5548 8.16677Z" fill="#B3B3B3"/>
<path d="M9.375 11.2386C8.80732 11.2386 8.24704 11.1098 7.73641 10.8618C7.22578 10.6137 6.77812 10.253 6.42719 9.80683C6.07625 9.36062 5.8312 8.84056 5.71052 8.28586C5.58983 7.73116 5.59665 7.1563 5.73047 6.60462C5.7371 6.57838 5.73681 6.55087 5.72962 6.52478C5.72243 6.4987 5.70859 6.47492 5.68945 6.45579L3.07851 3.84368C3.05083 3.81596 3.01374 3.79966 2.9746 3.79799C2.93546 3.79633 2.89712 3.80943 2.86719 3.8347C1.91445 4.64759 1.03125 5.63665 0.223826 6.79251C0.0824919 6.99536 0.00465364 7.23565 0.0002022 7.48285C-0.00424924 7.73004 0.0648871 7.97298 0.198826 8.18079C1.23047 9.79524 2.55781 11.155 4.03789 12.1124C5.70547 13.1917 7.49687 13.7386 9.3625 13.7386C10.326 13.736 11.2832 13.5838 12.2 13.2874C12.2255 13.2793 12.2485 13.2647 12.2668 13.2451C12.2851 13.2254 12.298 13.2015 12.3043 13.1754C12.3106 13.1494 12.3101 13.1221 12.3029 13.0963C12.2956 13.0705 12.2819 13.047 12.2629 13.0281L10.4086 11.1741C10.3895 11.155 10.3657 11.1412 10.3396 11.134C10.3135 11.1268 10.286 11.1265 10.2598 11.1331C9.97008 11.2033 9.67306 11.2387 9.375 11.2386V11.2386Z" fill="#B3B3B3"/>
</svg>
