<svg width="92" height="92" viewBox="0 0 92 92" fill="none" xmlns="http://www.w3.org/2000/svg">
<circle cx="46" cy="46" r="46" fill="#EEFFFF"/>
<path opacity="0.5" d="M52.8672 56.9927C55.2816 56.9927 57.2411 58.9522 57.2411 61.3666L57.2386 63.771C57.531 69.2446 53.462 72.0115 46.1613 72.0115C38.8881 72.0115 34.7466 69.2871 34.7466 63.866V61.3666C34.7466 58.9522 36.7062 56.9927 39.1206 56.9927H52.8672V56.9927ZM52.8672 60.7417H39.1206C38.9548 60.7417 38.7959 60.8076 38.6787 60.9247C38.5615 61.0419 38.4957 61.2009 38.4957 61.3666V63.866C38.4957 66.8052 40.7127 68.2624 46.1613 68.2624C51.58 68.2624 53.647 66.8527 53.492 63.871V61.3666C53.492 61.2009 53.4262 61.0419 53.309 60.9247C53.1918 60.8076 53.0329 60.7417 52.8672 60.7417ZM25.3739 44.4957H36.3112C35.9963 45.7192 35.9158 46.9913 36.0738 48.2448H25.3739C25.2082 48.2448 25.0493 48.3106 24.9321 48.4278C24.8149 48.545 24.7491 48.7039 24.7491 48.8696V51.369C24.7491 54.3083 26.966 55.7655 32.4147 55.7655C33.5694 55.7655 34.5717 55.7005 35.4315 55.573C34.0014 56.479 32.9571 57.8821 32.4997 59.512L32.4147 59.5145C25.1415 59.5145 21 56.7902 21 51.369V48.8696C21 46.4552 22.9595 44.4957 25.3739 44.4957ZM66.6138 44.4957C69.0282 44.4957 70.9878 46.4552 70.9878 48.8696L70.9853 51.2741C71.2777 56.7477 67.2087 59.5145 59.908 59.5145L59.4856 59.5095C59.0143 57.835 57.9267 56.401 56.4413 55.4955C57.4086 55.6755 58.5583 55.7655 59.908 55.7655C65.3266 55.7655 67.3936 54.3558 67.2387 51.374V48.8696C67.2387 48.7039 67.1728 48.545 67.0557 48.4278C66.9385 48.3106 66.7795 48.2448 66.6138 48.2448H55.9164C56.0711 46.9911 55.9897 45.7195 55.6765 44.4957H66.6138ZM45.9939 39.4969C46.9785 39.4969 47.9536 39.6909 48.8633 40.0677C49.773 40.4445 50.5996 40.9968 51.2959 41.6931C51.9921 42.3894 52.5445 43.216 52.9213 44.1257C53.2981 45.0354 53.492 46.0104 53.492 46.9951C53.492 47.9798 53.2981 48.9548 52.9213 49.8645C52.5445 50.7742 51.9921 51.6008 51.2959 52.2971C50.5996 52.9934 49.773 53.5457 48.8633 53.9225C47.9536 54.2993 46.9785 54.4933 45.9939 54.4933C44.0052 54.4933 42.0981 53.7033 40.6919 52.2971C39.2857 50.8909 38.4957 48.9837 38.4957 46.9951C38.4957 45.0065 39.2857 43.0993 40.6919 41.6931C42.0981 40.2869 44.0052 39.4969 45.9939 39.4969V39.4969ZM45.9939 43.246C45.5015 43.246 45.014 43.343 44.5592 43.5314C44.1043 43.7198 43.691 43.996 43.3429 44.3441C42.9947 44.6922 42.7186 45.1055 42.5302 45.5604C42.3418 46.0152 42.2448 46.5028 42.2448 46.9951C42.2448 47.4874 42.3418 47.975 42.5302 48.4298C42.7186 48.8847 42.9947 49.298 43.3429 49.6461C43.691 49.9942 44.1043 50.2704 44.5592 50.4588C45.014 50.6472 45.5015 50.7442 45.9939 50.7442C46.9882 50.7442 47.9418 50.3492 48.6449 49.6461C49.348 48.943 49.743 47.9894 49.743 46.9951C49.743 46.0008 49.348 45.0472 48.6449 44.3441C47.9418 43.641 46.9882 43.246 45.9939 43.246ZM32.2472 27C34.2359 27 36.1431 27.79 37.5492 29.1962C38.9554 30.6023 39.7454 32.5095 39.7454 34.4982C39.7454 36.4868 38.9554 38.394 37.5492 39.8002C36.1431 41.2063 34.2359 41.9963 32.2472 41.9963C30.2586 41.9963 28.3514 41.2063 26.9452 39.8002C25.5391 38.394 24.7491 36.4868 24.7491 34.4982C24.7491 32.5095 25.5391 30.6023 26.9452 29.1962C28.3514 27.79 30.2586 27 32.2472 27V27ZM59.7405 27C61.7291 27 63.6363 27.79 65.0425 29.1962C66.4487 30.6023 67.2387 32.5095 67.2387 34.4982C67.2387 36.4868 66.4487 38.394 65.0425 39.8002C63.6363 41.2063 61.7291 41.9963 59.7405 41.9963C57.7519 41.9963 55.8447 41.2063 54.4385 39.8002C53.0323 38.394 52.2423 36.4868 52.2423 34.4982C52.2423 32.5095 53.0323 30.6023 54.4385 29.1962C55.8447 27.79 57.7519 27 59.7405 27ZM32.2472 30.7491C31.2529 30.7491 30.2993 31.1441 29.5962 31.8472C28.8932 32.5503 28.4982 33.5038 28.4982 34.4982C28.4982 35.4925 28.8932 36.4461 29.5962 37.1492C30.2993 37.8523 31.2529 38.2472 32.2472 38.2472C33.2416 38.2472 34.1952 37.8523 34.8982 37.1492C35.6013 36.4461 35.9963 35.4925 35.9963 34.4982C35.9963 33.5038 35.6013 32.5503 34.8982 31.8472C34.1952 31.1441 33.2416 30.7491 32.2472 30.7491ZM59.7405 30.7491C58.7462 30.7491 57.7926 31.1441 57.0895 31.8472C56.3864 32.5503 55.9914 33.5038 55.9914 34.4982C55.9914 35.4925 56.3864 36.4461 57.0895 37.1492C57.7926 37.8523 58.7462 38.2472 59.7405 38.2472C60.7348 38.2472 61.6884 37.8523 62.3915 37.1492C63.0946 36.4461 63.4896 35.4925 63.4896 34.4982C63.4896 33.5038 63.0946 32.5503 62.3915 31.8472C61.6884 31.1441 60.7348 30.7491 59.7405 30.7491Z" fill="#8CE3E3"/>
</svg>
