<svg width="18" height="12" viewBox="0 0 18 12" fill="none" xmlns="http://www.w3.org/2000/svg">
<path d="M14.8477 4.16211C13.9531 1.80273 11.6738 0.125 9.00391 0.125C6.33398 0.125 4.05469 1.80078 3.16016 4.16016C1.48633 4.59961 0.25 6.125 0.25 7.9375C0.25 10.0957 1.99805 11.8438 4.1543 11.8438H4.9375C5.02344 11.8438 5.09375 11.7734 5.09375 11.6875V10.5156C5.09375 10.4297 5.02344 10.3594 4.9375 10.3594H4.1543C3.49609 10.3594 2.87695 10.0977 2.41602 9.62305C1.95703 9.15039 1.71289 8.51367 1.73438 7.85352C1.75195 7.33789 1.92773 6.85352 2.24609 6.44531C2.57227 6.0293 3.0293 5.72656 3.53711 5.5918L4.27734 5.39844L4.54883 4.68359C4.7168 4.23828 4.95117 3.82227 5.24609 3.44531C5.53725 3.07169 5.88214 2.74326 6.26953 2.4707C7.07227 1.90625 8.01758 1.60742 9.00391 1.60742C9.99023 1.60742 10.9355 1.90625 11.7383 2.4707C12.127 2.74414 12.4707 3.07227 12.7617 3.44531C13.0566 3.82227 13.291 4.24023 13.459 4.68359L13.7285 5.39648L14.4668 5.5918C15.5254 5.87695 16.2656 6.83984 16.2656 7.9375C16.2656 8.58398 16.0137 9.19336 15.5566 9.65039C15.3325 9.87584 15.0659 10.0546 14.7722 10.1763C14.4785 10.298 14.1636 10.3602 13.8457 10.3594H13.0625C12.9766 10.3594 12.9062 10.4297 12.9062 10.5156V11.6875C12.9062 11.7734 12.9766 11.8438 13.0625 11.8438H13.8457C16.002 11.8438 17.75 10.0957 17.75 7.9375C17.75 6.12695 16.5176 4.60352 14.8477 4.16211Z" fill="#6D6D6D"/>
</svg>
