<svg width="92" height="92" viewBox="0 0 92 92" fill="none" xmlns="http://www.w3.org/2000/svg">
<circle cx="46" cy="46" r="46" fill="#EEFFFF"/>
<g opacity="0.5">
<path d="M69.2423 38.4015C69.0182 37.7061 68.606 37.0864 68.0515 36.6108C67.4969 36.1352 66.8216 35.8224 66.1003 35.7069L54.781 33.8674L49.5338 23.6707C49.1995 23.0216 48.6929 22.477 48.0696 22.0969C47.4462 21.7167 46.7302 21.5156 46.0001 21.5156C45.2699 21.5156 44.5539 21.7167 43.9306 22.0969C43.3072 22.477 42.8006 23.0216 42.4664 23.6707L37.2191 33.8674L25.9001 35.7069C25.1794 35.8242 24.505 36.1377 23.9508 36.6131C23.3967 37.0885 22.9841 37.7073 22.7585 38.4017C22.5329 39.096 22.5029 39.8392 22.6718 40.5495C22.8407 41.2598 23.202 41.9098 23.7161 42.4283L31.7923 50.5697L30.0442 61.9032C29.932 62.6251 30.0211 63.3639 30.3017 64.0384C30.5822 64.7129 31.0434 65.297 31.6344 65.7264C32.2254 66.1558 32.9233 66.4139 33.6515 66.4722C34.3797 66.5306 35.1099 66.3871 35.7618 66.0573L46.0001 60.8923L56.2386 66.0573C56.8906 66.3864 57.6206 66.5294 58.3485 66.4707C59.0764 66.4121 59.774 66.1539 60.3648 65.7247C60.9556 65.2954 61.4167 64.7117 61.6975 64.0375C61.9782 63.3634 62.0677 62.6249 61.9562 61.9032L60.2082 50.5697L68.2843 42.4283C68.8 41.9108 69.1624 41.2608 69.3315 40.5501C69.5006 39.8393 69.4697 39.0957 69.2423 38.4015V38.4015ZM66.0655 40.2276L56.879 49.4883L58.8676 62.3799C58.8923 62.5343 58.8737 62.6925 58.814 62.8369C58.7542 62.9814 58.6557 63.1066 58.5292 63.1984C58.4027 63.2903 58.2532 63.3454 58.0973 63.3576C57.9415 63.3698 57.7853 63.3385 57.6461 63.2674L46.0001 57.3922L34.354 63.2676C34.2148 63.3387 34.0586 63.37 33.9027 63.3578C33.7468 63.3456 33.5974 63.2905 33.4709 63.1986C33.3444 63.1067 33.2458 62.9816 33.1861 62.8371C33.1263 62.6927 33.1077 62.5345 33.1324 62.3801L35.1212 49.4883L25.9347 40.2275C25.825 40.1167 25.7479 39.9778 25.7119 39.8261C25.6759 39.6744 25.6823 39.5156 25.7305 39.3673C25.7787 39.219 25.8668 39.0868 25.9851 38.9852C26.1034 38.8836 26.2474 38.8166 26.4013 38.7914L39.2764 36.699L45.2451 25.1007C45.3165 24.9619 45.4247 24.8456 45.5579 24.7643C45.691 24.683 45.844 24.64 46.0001 24.64C46.1561 24.64 46.3091 24.683 46.4423 24.7643C46.5755 24.8456 46.6837 24.9619 46.755 25.1007L52.7237 36.699L65.5988 38.7914C65.7527 38.8166 65.8967 38.8836 66.015 38.9852C66.1333 39.0868 66.2214 39.219 66.2696 39.3673C66.3178 39.5156 66.3242 39.6744 66.2882 39.8261C66.2522 39.9778 66.1751 40.1167 66.0654 40.2275L66.0655 40.2276Z" fill="#8DE3E3"/>
</g>
</svg>
