<svg width="18" height="18" viewBox="0 0 18 18" fill="none" xmlns="http://www.w3.org/2000/svg">
<path d="M9 0C13.9707 0 18 4.0291 18 8.99955C18 13.97 13.9707 17.9991 9 17.9991C7.5636 18.0011 6.14774 17.6579 4.87171 16.9983L1.42831 17.9586C1.23619 18.0122 1.03328 18.0138 0.840359 17.9632C0.647436 17.9125 0.471441 17.8115 0.330406 17.6705C0.189371 17.5295 0.0883664 17.3535 0.0377419 17.1606C-0.0128825 16.9677 -0.0113068 16.7648 0.0423075 16.5727L1.00351 13.1321C0.342324 11.855 -0.00186192 10.4376 7.57525e-06 8.99955C7.57525e-06 4.0291 4.02931 0 9 0ZM9 1.34993C6.9711 1.34993 5.02529 2.15587 3.59064 3.59045C2.15599 5.02503 1.35001 6.97074 1.35001 8.99955C1.35001 10.3225 1.68571 11.5941 2.31571 12.7227L2.45071 12.9656L1.44991 16.5511L5.03821 15.5503L5.28121 15.6853C6.30215 16.2529 7.43953 16.5792 8.60612 16.6391C9.77271 16.699 10.9375 16.491 12.0113 16.031C13.085 15.571 14.0391 14.8712 14.8005 13.9853C15.5618 13.0994 16.1101 12.0509 16.4035 10.9203C16.6968 9.78964 16.7272 8.60685 16.4925 7.46259C16.2578 6.31834 15.7642 5.24303 15.0495 4.31912C14.3348 3.39521 13.4179 2.64723 12.3693 2.13255C11.3207 1.61787 10.1681 1.35016 9 1.34993V1.34993ZM9 12.1494C9.2387 12.1494 9.46762 12.2442 9.6364 12.413C9.80518 12.5818 9.9 12.8107 9.9 13.0493C9.9 13.288 9.80518 13.5169 9.6364 13.6857C9.46762 13.8545 9.2387 13.9493 9 13.9493C8.76131 13.9493 8.53239 13.8545 8.36361 13.6857C8.19483 13.5169 8.1 13.288 8.1 13.0493C8.1 12.8107 8.19483 12.5818 8.36361 12.413C8.53239 12.2442 8.76131 12.1494 9 12.1494V12.1494ZM9 4.27478C9.65642 4.27478 10.2859 4.53553 10.7501 4.99966C11.2142 5.46379 11.475 6.09328 11.475 6.74966C11.475 7.65861 11.2077 8.16619 10.5291 8.87265L10.377 9.02655C9.8172 9.58632 9.675 9.82391 9.675 10.3495C9.675 10.5285 9.60389 10.7002 9.4773 10.8268C9.35071 10.9533 9.17903 11.0244 9 11.0244C8.82098 11.0244 8.64929 10.9533 8.52271 10.8268C8.39612 10.7002 8.325 10.5285 8.325 10.3495C8.325 9.44052 8.5923 8.93295 9.2709 8.22649L9.423 8.07259C9.9828 7.51282 10.125 7.27523 10.125 6.74966C10.1241 6.46192 10.0129 6.18548 9.81439 5.97719C9.61587 5.76889 9.34507 5.64459 9.0577 5.62983C8.77032 5.61508 8.48822 5.711 8.2694 5.89787C8.05059 6.08473 7.9117 6.34834 7.8813 6.63447L7.875 6.74966C7.875 6.92867 7.80389 7.10035 7.6773 7.22693C7.55071 7.35351 7.37903 7.42463 7.20001 7.42463C7.02098 7.42463 6.8493 7.35351 6.72271 7.22693C6.59612 7.10035 6.52501 6.92867 6.52501 6.74966C6.52501 6.09328 6.78576 5.46379 7.24992 4.99966C7.71407 4.53553 8.34359 4.27478 9 4.27478V4.27478Z" fill="white"/>
</svg>
