<svg width="18" height="18" viewBox="0 0 18 18" fill="none" xmlns="http://www.w3.org/2000/svg">
<path d="M13.5 0H7.3125C6.99609 0 6.72949 0.108398 6.5127 0.325195C6.2959 0.541992 6.1875 0.808594 6.1875 1.125H12.375V5.625H16.875V14.625H12.9375V15.75H16.875C17.1914 15.75 17.458 15.6416 17.6748 15.4248C17.8916 15.208 18 14.9414 18 14.625V4.5L13.5 0ZM13.5 4.5V1.58203L16.4004 4.5H13.5ZM1.125 2.25C0.808594 2.25 0.541992 2.3584 0.325195 2.5752C0.108398 2.79199 0 3.05859 0 3.375V16.875C0 17.1914 0.108398 17.458 0.325195 17.6748C0.541992 17.8916 0.808594 18 1.125 18H10.6875C11.0039 18 11.2705 17.8916 11.4873 17.6748C11.7041 17.458 11.8125 17.1914 11.8125 16.875V6.75L7.3125 2.25H1.125ZM10.6875 16.875H1.125V3.375H6.1875V7.875H10.6875V16.875ZM7.3125 6.75V3.83203L10.2129 6.75H7.3125Z" fill="white"/>
</svg>
