<svg width="92" height="92" viewBox="0 0 92 92" fill="none" xmlns="http://www.w3.org/2000/svg">
<circle cx="46" cy="46" r="46" fill="#EEFEFE"/>
<path opacity="0.5" d="M26.2085 26.7292C26.2085 26.3148 26.0439 25.9173 25.7509 25.6243C25.4578 25.3313 25.0604 25.1667 24.646 25.1667C24.2316 25.1667 23.8342 25.3313 23.5411 25.6243C23.2481 25.9173 23.0835 26.3148 23.0835 26.7292V65.2708C23.0835 66.1333 23.7835 66.8333 24.646 66.8333H62.6668C63.0812 66.8333 63.4787 66.6687 63.7717 66.3757C64.0647 66.0827 64.2293 65.6852 64.2293 65.2708C64.2293 64.8564 64.0647 64.459 63.7717 64.166C63.4787 63.873 63.0812 63.7083 62.6668 63.7083H26.2085V26.7292Z" fill="#8DE3E3"/>
<path opacity="0.5" d="M67.4166 37.2083C67.6926 36.9121 67.8428 36.5204 67.8357 36.1156C67.8285 35.7108 67.6646 35.3246 67.3783 35.0383C67.092 34.752 66.7058 34.588 66.301 34.5809C65.8962 34.5737 65.5044 34.724 65.2082 35L53.2916 46.9167L45.5416 39.1667C45.2486 38.8741 44.8515 38.7097 44.4374 38.7097C44.0233 38.7097 43.6262 38.8741 43.3332 39.1667L30.8332 51.6667C30.6797 51.8097 30.5566 51.9822 30.4712 52.1739C30.3858 52.3655 30.3399 52.5724 30.3362 52.7822C30.3325 52.992 30.3711 53.2004 30.4497 53.395C30.5282 53.5896 30.6452 53.7663 30.7936 53.9147C30.942 54.063 31.1187 54.18 31.3133 54.2586C31.5078 54.3372 31.7162 54.3758 31.926 54.3721C32.1358 54.3684 32.3427 54.3224 32.5344 54.237C32.726 54.1516 32.8985 54.0285 33.0416 53.875L44.4374 42.4792L52.1874 50.2292C52.4804 50.5218 52.8775 50.6861 53.2916 50.6861C53.7056 50.6861 54.1028 50.5218 54.3957 50.2292L67.4166 37.2083V37.2083Z" fill="#8DE3E3"/>
</svg>
