<svg width="18" height="18" viewBox="0 0 18 18" fill="none" xmlns="http://www.w3.org/2000/svg">
<path d="M17.469 8.622L9.369 0.522C9.045 0.198 8.595 0 8.1 0H1.8C0.81 0 0 0.81 0 1.8V8.1C0 8.595 0.198 9.045 0.531 9.378L8.631 17.478C8.955 17.802 9.405 18 9.9 18C10.395 18 10.845 17.802 11.169 17.469L17.469 11.169C17.802 10.845 18 10.395 18 9.9C18 9.405 17.793 8.946 17.469 8.622ZM9.9 16.209L1.8 8.1V1.8H8.1V1.791L16.2 9.891L9.9 16.209V16.209Z" fill="white"/>
<path d="M4.04995 5.40001C4.79554 5.40001 5.39995 4.7956 5.39995 4.05001C5.39995 3.30443 4.79554 2.70001 4.04995 2.70001C3.30437 2.70001 2.69995 3.30443 2.69995 4.05001C2.69995 4.7956 3.30437 5.40001 4.04995 5.40001Z" fill="white"/>
</svg>
