<svg width="8" height="5" viewBox="0 0 8 5" fill="none" xmlns="http://www.w3.org/2000/svg">
<path d="M3.99373 4.79838C3.86044 4.79869 3.73128 4.74292 3.62865 4.64075L0.206069 1.21395C0.0895779 1.09761 0.0163207 0.930446 0.00241378 0.749219C-0.0114932 0.567992 0.0350893 0.38755 0.131913 0.247588C0.228737 0.107626 0.367872 0.019609 0.518708 0.00290011C0.669545 -0.0138088 0.819728 0.0421587 0.93622 0.158491L3.99373 3.2289L7.05123 0.268149C7.10958 0.211219 7.17672 0.168705 7.24879 0.14305C7.32085 0.117396 7.39643 0.109108 7.47117 0.118661C7.54591 0.128214 7.61835 0.155421 7.68431 0.198718C7.75027 0.242015 7.80847 0.300548 7.85554 0.370953C7.90778 0.441422 7.94734 0.524095 7.97175 0.61379C7.99616 0.703486 8.00489 0.798272 7.9974 0.89221C7.9899 0.986147 7.96634 1.07721 7.92818 1.1597C7.89003 1.24219 7.83811 1.31432 7.77568 1.37158L4.3531 4.68187C4.24752 4.76789 4.12099 4.80891 3.99373 4.79838V4.79838Z" fill="#A5A5A5"/>
</svg>
