<svg width="190" height="190" viewBox="0 0 190 190" fill="none" xmlns="http://www.w3.org/2000/svg">
<path d="M146.657 169.486C148.027 171.462 150.747 171.961 152.658 170.502C163.091 162.534 171.773 152.481 178.14 140.965C185.21 128.177 189.234 113.93 189.901 99.3336C190.567 84.7367 187.858 70.1828 181.983 56.8038C176.108 43.4248 167.226 31.5814 156.027 22.1946C144.829 12.8079 131.616 6.13082 117.417 2.68278C103.218 -0.765259 88.4142 -0.891339 74.1581 2.31435C59.902 5.52003 46.5775 11.9711 35.2209 21.1657C24.9938 29.4459 16.611 39.7502 10.5882 51.4144C9.48494 53.5511 10.4512 56.1419 12.6362 57.1461C14.8212 58.1503 17.3968 57.1871 18.5099 55.0555C23.9668 44.6061 31.5147 35.3711 40.7007 27.9339C51.0162 19.5821 63.1193 13.7224 76.0686 10.8105C89.0178 7.89871 102.464 8.01323 115.362 11.1452C128.26 14.2772 140.261 20.3422 150.433 28.8685C160.605 37.3948 168.673 48.1526 174.009 60.3051C179.346 72.4577 181.807 85.6775 181.202 98.9363C180.596 112.195 176.94 125.136 170.518 136.751C164.8 147.095 157.025 156.14 147.689 163.338C145.785 164.806 145.286 167.51 146.657 169.486Z" fill="#C0F1F1"/>
<path d="M181.675 121.532C183.975 122.236 186.42 120.945 187.017 118.616C190.281 105.9 190.877 92.6302 188.75 79.6444C186.388 65.2244 180.732 51.5437 172.221 39.6661C163.71 27.7886 152.574 18.0344 139.679 11.1622C126.784 4.29003 112.477 0.485108 97.8715 0.0433656C83.2661 -0.398377 68.7556 2.53497 55.4687 8.61526C42.1817 14.6956 30.4764 23.7589 21.2632 35.1004C12.05 46.4419 5.57714 59.7558 2.34812 74.0066C-0.559753 86.8401 -0.766353 100.122 1.72254 113.011C2.17846 115.372 4.54088 116.809 6.87864 116.246C9.2164 115.682 10.6432 113.331 10.1982 110.968C8.01669 99.3832 8.22933 87.458 10.8412 75.931C13.7742 62.9865 19.6537 50.893 28.0224 40.5912C36.3911 30.2893 47.0234 22.0568 59.0923 16.5339C71.1613 11.0109 84.3417 8.34648 97.6082 8.74773C110.875 9.14898 123.87 12.6051 135.583 18.8473C147.296 25.0896 157.412 33.9496 165.142 44.7384C172.873 55.5272 178.011 67.9539 180.156 81.052C182.067 92.7158 181.558 104.632 178.681 116.064C178.094 118.396 179.376 120.828 181.675 121.532Z" fill="#FF9047"/>
<path d="M145.396 19.6546C146.733 17.6558 146.201 14.9422 144.143 13.6983C130.326 5.34653 114.586 0.641062 98.4033 0.0609537C80.7682 -0.571233 63.3056 3.72089 47.973 12.4562C32.6404 21.1915 20.0438 34.0246 11.5953 49.5171C3.14685 65.0096 -0.819613 82.549 0.140584 100.169C1.10078 117.789 6.94969 134.794 17.0316 149.277C27.1136 163.759 41.0301 175.148 57.2211 182.165C73.4122 189.183 91.2378 191.552 108.7 189.007C124.723 186.672 139.859 180.284 152.687 170.48C154.597 169.02 154.831 166.265 153.285 164.423C151.738 162.581 148.998 162.351 147.081 163.803C135.497 172.571 121.866 178.288 107.444 180.39C91.5826 182.701 75.3911 180.549 60.6842 174.175C45.9773 167.801 33.3365 157.456 24.1787 144.301C15.021 131.146 9.7082 115.7 8.83603 99.6954C7.96385 83.6904 11.5667 67.7587 19.2408 53.6864C26.9148 39.614 38.3567 27.9572 52.2838 20.0227C66.2109 12.0881 82.0728 8.18947 98.0913 8.76371C112.657 9.28586 126.828 13.4875 139.296 20.9453C141.36 22.1797 144.059 21.6534 145.396 19.6546Z" fill="#3BCAC9"/>
</svg>
